<?xml version="1.0" standalone="no"?>
<!DOCTYPE svg PUBLIC "-//W3C//DTD SVG 20010904//EN"
 "http://www.w3.org/TR/2001/REC-SVG-20010904/DTD/svg10.dtd">
<svg version="1.0" xmlns="http://www.w3.org/2000/svg"
 width="600.000000pt" height="512.000000pt" viewBox="0 0 600.000000 512.000000"
 preserveAspectRatio="xMidYMid meet">
<g transform="translate(0.000000,512.000000) scale(0.100000,-0.100000)"
fill="#000000" stroke="none">
<path d="M5995 2560 c0 -1411 1 -1988 2 -1283 2 706 2 1860 0 2565 -1 706 -2
129 -2 -1282z"/>
<path d="M3326 4279 c-49 -12 -60 -21 -81 -64 -12 -26 -22 -35 -40 -35 -15 0
-25 6 -25 14 0 21 -56 80 -68 72 -6 -3 -13 -2 -17 4 -8 13 -112 13 -120 0 -3
-5 -12 -7 -19 -4 -7 3 -19 -2 -26 -11 -7 -8 -20 -15 -29 -15 -32 0 -61 -43
-61 -88 0 -23 5 -42 10 -42 23 0 7 -28 -35 -63 -46 -39 -81 -92 -76 -115 1 -8
-2 -19 -7 -25 -5 -7 -19 -45 -32 -84 -12 -40 -26 -73 -30 -73 -4 0 -10 -13
-13 -29 -5 -25 -13 -31 -42 -37 -54 -10 -85 -39 -85 -80 0 -20 5 -34 13 -34 7
-1 5 -6 -5 -14 -10 -7 -18 -17 -18 -21 0 -4 -8 -15 -18 -24 -22 -19 -36 -57
-52 -131 -6 -30 -14 -62 -17 -70 -4 -8 -7 -17 -8 -20 -1 -3 -9 -22 -18 -42
-10 -21 -17 -44 -17 -52 0 -8 -5 -18 -10 -21 -6 -4 -8 -11 -4 -16 3 -5 0 -16
-6 -24 -7 -8 -9 -15 -5 -15 4 0 2 -7 -5 -14 -6 -8 -10 -28 -9 -43 2 -15 1 -33
-2 -38 -3 -6 -12 -31 -19 -57 -7 -27 -19 -49 -29 -52 -9 -3 -56 -8 -106 -12
-49 -3 -96 -11 -102 -16 -15 -12 -15 -9 -13 49 1 25 -4 45 -12 50 -41 26 -50
110 -18 172 10 21 16 41 13 45 -4 3 0 18 7 32 11 20 12 27 1 33 -9 6 -3 16 21
37 18 16 33 36 33 44 0 8 -16 32 -36 54 -41 44 -41 59 2 78 16 7 29 16 29 20
0 5 6 8 14 8 8 0 38 18 66 41 51 40 86 98 76 125 -3 7 -1 16 4 19 20 12 7 70
-21 93 -45 37 -112 39 -183 8 -34 -15 -67 -24 -78 -20 -24 7 -76 -17 -106 -49
-20 -22 -21 -25 -7 -31 21 -8 34 0 45 29 8 21 15 23 81 23 44 -1 75 4 77 10 2
6 10 8 18 5 8 -3 22 1 31 8 13 11 17 11 20 2 3 -7 19 -13 37 -13 27 0 34 -6
48 -35 8 -19 12 -35 7 -35 -5 0 -9 -14 -9 -32 0 -26 -10 -42 -52 -81 -52 -48
-112 -81 -134 -73 -6 2 -14 19 -18 37 -7 36 -31 58 -63 59 -16 0 -21 4 -17 15
5 12 -3 15 -37 15 -24 0 -53 -7 -63 -15 -11 -8 -28 -15 -37 -15 -9 0 -26 -16
-38 -35 -25 -43 -49 -45 -58 -5 -5 30 -48 70 -73 70 -10 0 -9 4 0 15 7 9 19
14 27 11 7 -3 13 -1 13 4 0 6 10 10 23 10 12 0 37 9 55 20 18 11 37 18 42 15
14 -9 90 65 90 86 0 11 -3 19 -8 19 -4 0 -12 10 -17 22 -17 39 -91 50 -210 32
-55 -8 -107 -19 -116 -24 -9 -5 -26 -6 -37 -3 -11 2 -23 0 -26 -6 -10 -15 -46
-14 -46 2 0 9 -3 8 -9 -2 -6 -9 -11 -10 -15 -2 -11 18 -40 13 -60 -10 -12 -14
-14 -24 -7 -28 13 -9 -117 -121 -140 -121 -22 0 -89 -75 -89 -99 0 -11 -4 -23
-10 -26 -11 -7 -13 -96 -4 -133 8 -27 30 -23 27 4 -2 10 3 50 9 88 14 83 57
145 108 153 8 1 16 7 18 12 2 6 9 11 16 11 6 0 26 16 45 35 18 19 41 35 51 35
9 0 23 7 31 16 22 27 62 41 132 49 37 3 67 10 67 14 0 5 15 9 33 9 63 2 71 3
84 14 10 8 20 8 36 0 12 -7 32 -13 44 -15 47 -7 73 -60 36 -74 -10 -4 -38 -19
-63 -34 -25 -14 -63 -30 -85 -34 -22 -3 -55 -15 -74 -26 -19 -11 -43 -19 -55
-18 -42 5 -144 -64 -171 -115 -5 -10 -19 -24 -30 -30 -11 -6 -24 -16 -30 -23
-5 -7 -21 -17 -35 -23 -14 -6 -38 -19 -55 -30 -16 -11 -37 -22 -45 -26 -57
-22 -80 -36 -75 -44 8 -13 42 -13 50 -1 3 5 19 12 35 16 17 4 30 13 30 21 0
12 7 10 31 -7 l32 -22 18 22 c11 13 19 29 19 37 0 21 32 16 64 -10 35 -29 67
-25 40 5 -9 11 -23 19 -30 19 -24 0 -28 42 -7 60 12 9 28 30 37 48 17 33 82
89 92 79 4 -3 -10 -25 -30 -48 -20 -23 -34 -45 -31 -47 3 -3 1 -10 -4 -16 -4
-6 -11 -24 -15 -39 -10 -44 25 -32 36 12 10 37 31 73 64 110 18 20 28 22 57
17 31 -6 67 -31 56 -39 -2 -2 -30 -16 -61 -32 -32 -15 -58 -34 -58 -40 0 -15
35 -26 47 -15 4 4 27 10 51 13 34 4 42 2 42 -11 1 -16 2 -16 13 -1 8 11 22 15
45 11 18 -2 31 0 30 4 -2 5 7 20 20 34 12 13 22 27 22 32 0 4 9 8 20 8 11 0
20 5 20 10 0 6 7 10 15 10 23 0 19 -8 -25 -50 -22 -21 -40 -41 -40 -44 0 -3
12 -6 28 -6 22 1 31 9 48 43 19 36 25 42 50 39 15 -2 39 -8 53 -14 24 -9 25
-10 8 -23 -10 -7 -38 -16 -62 -20 -59 -8 -57 -22 3 -30 53 -7 78 -18 75 -34
-2 -6 2 -11 7 -11 6 0 10 -5 10 -11 0 -7 11 -22 25 -35 14 -13 25 -27 25 -33
0 -5 6 -11 13 -14 8 -3 5 -12 -10 -28 -25 -27 -62 -31 -89 -8 -13 11 -48 14
-150 13 -125 -1 -136 -3 -179 -28 -25 -15 -60 -40 -78 -55 -18 -16 -43 -31
-57 -34 -77 -18 -115 -29 -125 -37 -9 -7 -43 -7 -52 0 -2 2 -7 3 -13 4 -12 1
-14 10 -7 38 6 21 7 21 26 4 22 -20 40 -4 21 19 -19 23 -58 18 -71 -7 -7 -13
-17 -26 -23 -31 -7 -5 -1 -16 17 -32 22 -20 39 -25 81 -25 35 0 58 5 66 15 7
8 16 12 21 10 15 -10 113 27 149 55 47 36 118 70 135 64 7 -3 16 -1 20 5 8 14
162 14 170 1 4 -6 10 -8 15 -5 5 3 11 1 15 -5 3 -5 14 -10 24 -10 9 0 25 -6
34 -12 14 -11 15 -19 5 -58 -6 -25 -17 -49 -25 -53 -15 -9 -18 -113 -3 -122 6
-3 10 -14 10 -24 0 -10 7 -24 15 -31 19 -16 21 -94 2 -87 -31 12 -167 29 -183
23 -27 -10 -8 -19 48 -22 95 -4 239 -80 225 -117 -8 -22 -45 -11 -82 24 -31
29 -91 56 -102 45 -10 -10 16 -34 45 -41 31 -8 62 -33 62 -50 0 -7 17 -16 37
-20 20 -3 32 -10 27 -13 -5 -4 -9 -14 -9 -22 0 -20 -43 -25 -63 -7 -9 8 -35
21 -57 28 -22 8 -45 20 -51 28 -6 8 -16 11 -22 7 -19 -12 -2 -35 36 -47 21 -6
50 -21 65 -31 25 -18 26 -21 11 -32 -14 -11 -24 -9 -57 6 -31 16 -53 19 -106
14 -36 -3 -67 -5 -68 -6 -2 0 -3 -9 -3 -20 0 -23 12 -25 40 -7 17 10 22 9 30
-3 7 -12 12 -12 34 -1 18 10 29 11 38 4 7 -6 32 -14 56 -18 39 -6 47 -4 96 34
42 31 53 45 49 61 -6 24 12 49 45 61 13 5 20 13 17 19 -3 5 -2 10 3 10 5 0 13
19 18 43 8 36 13 42 37 45 19 2 27 -1 27 -12 0 -21 -40 -106 -50 -106 -4 0
-11 -11 -14 -25 -3 -13 -20 -40 -36 -59 -17 -18 -30 -44 -30 -58 0 -13 -6 -32
-14 -43 -14 -21 -16 -26 -16 -50 0 -8 -4 -15 -10 -15 -5 0 -10 25 -10 57 0 53
-1 55 -17 40 -10 -8 -35 -18 -55 -22 -21 -4 -38 -12 -38 -17 0 -5 -8 -8 -17
-7 -10 1 -26 -1 -36 -6 -10 -4 -23 -2 -32 5 -15 12 -55 5 -55 -11 0 -16 -40
-9 -47 9 -4 9 -16 31 -27 47 -30 42 -31 51 -29 138 2 78 17 121 50 140 7 5 11
12 8 16 -5 9 -55 2 -55 -8 0 -11 -59 -33 -70 -26 -6 4 -33 -10 -61 -30 -35
-27 -57 -36 -75 -32 -13 2 -27 0 -30 -4 -3 -5 -12 -9 -20 -9 -9 0 -25 -10 -36
-22 -13 -16 -21 -19 -24 -10 -3 6 -18 12 -34 12 -16 0 -41 5 -57 11 -31 11
-93 67 -93 84 0 5 -10 15 -22 20 -25 11 -38 55 -17 55 7 0 37 -25 65 -55 29
-30 59 -55 67 -55 8 0 17 -7 21 -15 3 -9 15 -14 28 -11 13 1 31 -2 40 -8 13
-8 21 -7 29 1 18 18 -94 137 -153 163 -27 11 -48 24 -48 28 0 4 -21 16 -48 26
-49 21 -72 38 -72 54 0 6 -5 12 -11 14 -6 2 6 21 25 41 20 21 36 42 36 46 0 4
11 18 25 31 14 13 25 27 25 31 0 4 -22 17 -50 30 -27 13 -50 30 -50 37 0 6 -4
12 -9 12 -21 0 -16 -27 10 -60 16 -19 27 -42 26 -51 -4 -25 -27 -49 -47 -49
-22 0 -100 -56 -100 -73 0 -10 -51 -114 -127 -259 -8 -16 -19 -28 -24 -28 -6
0 -7 -5 -4 -10 3 -6 -1 -13 -9 -16 -9 -3 -16 -12 -16 -20 0 -8 -9 -19 -20 -26
-11 -7 -20 -17 -20 -22 0 -4 -18 -30 -40 -56 -22 -26 -40 -53 -40 -59 0 -7 -4
-10 -9 -6 -11 6 -51 -42 -51 -62 0 -7 -11 -18 -25 -23 -14 -5 -25 -17 -25 -25
0 -9 -7 -18 -15 -21 -20 -8 -20 -82 1 -133 17 -42 124 -141 152 -141 10 0 32
-9 50 -20 34 -21 112 -28 112 -10 0 6 11 10 25 10 14 0 25 -4 25 -10 0 -5 14
-10 30 -10 17 0 30 5 30 11 0 6 16 10 37 8 21 -1 54 5 73 13 19 8 43 18 52 21
10 4 18 11 18 16 0 5 11 12 25 15 14 4 25 12 25 19 1 6 15 23 32 37 58 47 98
93 98 114 0 8 6 16 13 19 6 2 -6 7 -28 11 -22 4 -58 21 -79 37 -22 16 -47 29
-55 29 -8 0 -28 11 -45 24 -17 13 -56 31 -87 39 -31 9 -62 24 -69 32 -7 8 -18
15 -24 15 -6 0 -26 16 -44 34 -29 29 -31 34 -17 46 12 10 15 10 15 -4 0 -10
13 -21 30 -27 17 -6 30 -16 30 -22 0 -10 57 -42 93 -52 4 -1 10 -4 15 -5 4 -2
12 -4 17 -5 6 -1 33 -13 60 -27 120 -61 135 -68 160 -68 14 0 25 -6 25 -14 0
-13 48 -26 99 -26 13 0 40 14 61 30 21 17 42 30 48 30 6 0 12 4 14 8 5 13 96
52 121 52 13 0 27 4 32 9 6 6 19 -3 35 -24 24 -33 60 -47 60 -24 0 6 7 9 15 6
8 -4 17 -3 19 2 3 4 36 16 73 26 37 10 72 22 78 26 24 23 32 7 34 -66 1 -48
-2 -75 -9 -75 -6 0 -10 -6 -8 -12 3 -16 -21 -59 -41 -75 -9 -7 -12 -13 -7 -13
5 0 3 -7 -4 -15 -17 -20 9 -21 36 0 25 19 34 19 34 -3 0 -21 34 -44 55 -36 8
3 15 1 15 -5 0 -7 15 -11 38 -11 20 1 62 -5 92 -13 54 -14 152 -10 220 9 14 4
29 6 34 5 14 -3 95 40 104 56 5 8 15 16 23 17 38 8 110 51 169 101 35 30 68
55 73 55 10 0 37 26 37 35 0 3 11 21 24 38 13 18 29 50 36 72 7 22 21 50 32
61 25 27 13 36 -50 36 -42 0 -53 5 -104 49 -31 27 -60 48 -65 47 -4 -1 -24 5
-44 14 -27 12 -60 15 -130 12 -81 -3 -98 0 -133 19 -47 25 -59 38 -46 51 8 8
100 -32 100 -44 0 -7 39 -3 68 6 15 4 -112 74 -135 74 -13 0 -30 27 -21 35 2
2 40 -14 83 -36 44 -22 115 -51 158 -65 42 -15 80 -30 83 -35 3 -5 14 -9 24
-9 11 0 29 -10 42 -23 13 -13 30 -26 38 -30 8 -4 30 -16 49 -28 24 -14 37 -17
44 -10 16 16 54 13 61 -4 6 -17 66 -21 66 -5 0 6 20 8 50 5 27 -3 51 -1 54 4
3 5 43 12 88 16 46 3 115 13 153 21 39 9 85 16 103 16 17 1 32 5 32 10 0 4 8
8 19 8 10 0 22 10 26 23 7 19 9 16 12 -18 3 -22 0 -41 -6 -43 -5 -2 -8 -9 -5
-16 2 -6 -7 -23 -20 -35 -14 -13 -30 -39 -36 -56 -6 -18 -20 -35 -30 -38 -11
-3 -24 -17 -30 -31 -5 -14 -14 -26 -19 -26 -5 0 -11 -9 -14 -20 -4 -16 -11
-18 -43 -13 -22 3 -43 10 -49 14 -14 13 -25 11 -25 -5 0 -9 20 -19 55 -27 30
-7 55 -16 55 -20 0 -4 8 -8 18 -8 26 0 231 -46 238 -53 3 -4 12 -4 19 -2 7 3
16 1 20 -5 3 -6 15 -11 27 -11 11 0 48 -10 83 -21 72 -25 85 -47 85 -143 0
-71 16 -65 25 9 5 37 3 60 -4 69 -10 11 -8 17 6 24 17 10 17 11 0 30 -12 13
-15 22 -8 27 15 9 14 45 -2 45 -7 0 -23 -7 -35 -16 -14 -10 -35 -13 -59 -10
-63 8 -247 46 -263 53 -8 4 -19 8 -25 8 -5 1 -31 8 -57 15 l-47 12 50 58 50
57 137 13 c75 6 145 16 154 21 17 9 159 6 188 -4 8 -3 32 -8 52 -12 28 -4 41
-13 52 -37 9 -17 16 -38 16 -45 0 -25 25 -8 28 20 2 17 -6 36 -24 56 -15 17
-30 29 -32 26 -3 -3 -11 0 -18 6 -32 26 -248 22 -386 -7 -43 -10 -33 11 13 26
23 8 43 20 46 27 3 7 9 10 14 7 5 -3 12 1 15 9 3 8 14 17 25 20 28 7 23 27 -6
27 -36 0 -108 76 -101 106 6 21 4 22 -54 17 -66 -6 -95 7 -85 38 4 10 0 29 -7
41 -10 19 -37 87 -38 96 0 1 11 0 24 -4 15 -3 40 2 63 13 29 14 62 18 143 18
101 0 108 -1 170 -35 36 -19 72 -43 81 -52 9 -10 19 -18 23 -18 12 0 66 -43
66 -53 0 -14 -39 3 -67 29 -14 13 -33 24 -42 24 -9 0 -31 9 -49 20 -35 22 -72
26 -72 10 0 -6 6 -13 14 -16 8 -3 38 -28 65 -56 46 -46 63 -83 45 -101 -9 -9
-34 3 -34 17 0 6 -11 23 -25 38 -23 25 -39 30 -122 42 -27 4 -66 -34 -69 -67
-3 -36 55 -76 106 -73 45 3 100 18 100 28 0 5 10 2 22 -6 37 -26 48 -20 48 25
0 25 4 38 10 34 6 -4 22 0 35 9 13 9 31 16 40 16 9 0 13 5 10 10 -3 6 -1 10 4
10 15 0 54 -64 76 -125 11 -27 22 -52 26 -55 11 -8 39 -81 39 -101 0 -11 5
-19 10 -19 19 0 10 -20 -12 -29 -13 -5 -40 -27 -60 -50 -20 -22 -40 -41 -45
-41 -10 0 -73 -62 -73 -72 0 -4 -13 -19 -28 -35 -16 -15 -35 -49 -42 -75 -8
-27 -18 -48 -23 -48 -4 0 -5 -4 -2 -10 3 -6 2 -10 -3 -10 -5 0 -20 -32 -32
-70 -12 -39 -27 -73 -31 -76 -5 -3 -9 -14 -9 -25 0 -11 -7 -22 -15 -25 -8 -4
-15 -10 -15 -15 0 -16 -75 -113 -114 -147 -20 -17 -36 -34 -36 -37 0 -14 -57
-55 -85 -61 -33 -7 -65 -31 -65 -48 0 -6 -9 -17 -20 -24 -11 -7 -20 -21 -20
-31 0 -10 -9 -30 -20 -44 -24 -30 -26 -51 -4 -43 9 3 21 6 27 6 7 0 25 11 41
25 16 14 34 25 40 25 6 0 17 9 24 20 7 11 17 20 23 20 12 0 209 193 209 205 0
5 11 22 24 40 13 17 35 53 49 81 14 27 34 67 46 89 11 21 21 48 21 58 0 10 8
32 17 50 9 18 16 35 15 40 -1 4 2 7 8 7 5 0 10 6 10 13 0 6 16 32 35 55 19 24
37 53 41 65 13 40 118 127 155 127 3 0 12 -21 18 -47 7 -27 17 -56 22 -65 15
-29 11 -50 -16 -77 -48 -50 -125 -149 -125 -160 0 -6 -5 -11 -10 -11 -6 0 -15
-11 -20 -25 -5 -14 -14 -25 -20 -25 -5 0 -10 -4 -10 -10 0 -5 -31 -49 -70 -97
-38 -48 -70 -93 -70 -99 0 -7 -11 -19 -25 -28 -14 -9 -25 -21 -25 -27 0 -6
-29 -46 -65 -89 -36 -43 -65 -81 -65 -85 0 -4 -11 -16 -25 -27 -14 -11 -25
-25 -25 -33 0 -7 -11 -20 -26 -29 -14 -10 -28 -26 -32 -36 -4 -10 -54 -73
-111 -140 -57 -67 -102 -122 -100 -123 71 -38 67 -38 89 -10 11 14 20 32 20
40 0 7 8 16 18 20 24 8 82 64 82 80 0 7 9 17 20 23 11 6 18 15 15 20 -3 5 16
37 42 70 26 34 56 77 65 95 10 18 27 36 38 40 11 3 20 15 20 25 0 10 25 44 56
76 76 80 124 139 124 151 0 6 7 13 15 17 8 3 15 11 15 17 0 13 133 180 174
218 14 14 26 28 26 33 0 5 15 25 34 44 33 34 35 35 45 15 6 -11 10 -24 10 -28
-1 -4 0 -15 4 -23 3 -8 11 -42 19 -75 12 -56 15 -60 44 -63 41 -4 74 30 56 58
-6 11 -9 26 -6 35 3 8 1 15 -6 15 -6 0 -10 8 -9 18 1 9 -3 29 -9 43 -5 14 -13
47 -17 72 -4 26 -12 47 -17 47 -6 0 -8 7 -5 15 4 8 2 17 -3 20 -5 3 -17 30
-26 60 -8 30 -20 57 -25 61 -5 3 -7 9 -4 14 3 5 1 11 -5 15 -5 3 -10 12 -10
19 0 8 -8 31 -17 52 -9 22 -17 44 -17 49 -1 6 -6 19 -12 30 -6 11 -14 32 -18
48 -3 15 -11 27 -17 27 -6 0 -7 5 -4 10 4 6 -2 25 -13 43 -11 17 -25 53 -33
80 -7 26 -17 47 -21 47 -19 0 -5 20 28 41 35 22 37 22 50 4 9 -13 31 -20 69
-23 47 -4 56 -2 61 14 3 11 10 27 15 37 10 18 5 37 -10 37 -5 0 -12 -15 -17
-32 -8 -26 -15 -33 -39 -35 -16 -1 -37 5 -47 14 -19 17 -25 39 -9 28 6 -3 38
10 72 29 l62 34 -33 17 c-52 27 -123 23 -160 -9 -18 -14 -44 -29 -58 -33 -15
-3 -47 -17 -71 -30 -24 -12 -52 -23 -63 -23 -10 0 -27 -6 -38 -12 -14 -9 -22
-10 -31 -1 -8 8 -3 13 20 18 27 6 31 11 31 39 0 21 8 42 24 57 47 48 151 115
189 123 7 2 20 6 30 11 10 4 51 5 92 3 63 -4 76 -8 98 -31 13 -15 29 -27 34
-27 5 0 20 -11 32 -24 19 -20 20 -24 6 -30 -19 -7 -51 10 -82 46 -15 17 -38
29 -66 33 -23 4 -50 11 -59 16 -10 6 -19 5 -23 -2 -10 -15 -1 -20 51 -30 33
-6 59 -20 90 -49 24 -22 48 -40 53 -40 5 0 11 -9 14 -19 6 -23 -14 -34 -48
-25 -30 7 -41 -12 -15 -26 32 -17 86 17 83 53 -1 15 4 27 10 27 7 0 19 6 28
13 15 11 9 20 -54 72 l-71 60 -100 -1 c-73 0 -111 -5 -136 -17 -35 -17 -71
-38 -80 -47 -8 -8 -62 -38 -110 -61 -25 -12 -62 -33 -83 -46 -37 -23 -42 -24
-106 -13 -38 7 -98 10 -141 6 -157 -12 -217 -21 -233 -34 -9 -8 -21 -11 -27
-7 -6 4 -16 2 -23 -3 -7 -6 -44 -16 -82 -22 -39 -6 -77 -14 -85 -17 -8 -3 -23
-5 -32 -4 -10 1 -18 -3 -18 -9 0 -7 -7 -9 -16 -6 -9 4 -23 1 -31 -5 -19 -17
-229 -26 -219 -10 4 6 3 11 -3 11 -9 0 -181 169 -181 178 0 18 -83 104 -117
121 -24 11 -43 25 -43 30 0 15 21 25 29 14 3 -5 20 -15 38 -22 19 -8 51 -39
80 -77 57 -76 188 -214 203 -214 5 0 10 -7 10 -15 0 -8 5 -15 10 -15 6 0 10
28 10 65 0 37 -4 65 -10 65 -5 0 -10 7 -10 15 0 8 -9 20 -20 27 -11 7 -20 18
-20 25 0 14 -144 145 -171 155 -10 4 -19 12 -19 18 0 5 -5 10 -11 10 -14 0
-115 79 -153 118 -28 30 -28 32 -16 76 7 25 19 51 26 57 8 6 14 18 14 26 0 7
7 16 16 20 35 13 92 91 85 117 -1 5 4 13 11 17 10 7 10 14 -3 36 -19 35 -11
88 13 88 9 0 30 13 47 29 21 20 35 26 50 21 15 -5 21 -2 21 9 0 9 -4 16 -10
16 -5 0 -17 16 -25 36 -22 52 -5 103 41 127 19 9 43 17 53 17 10 0 21 3 24 7
10 9 59 14 77 7 9 -3 -8 -13 -41 -23 -65 -21 -130 -66 -123 -86 3 -7 1 -16 -5
-20 -17 -10 -13 -21 15 -54 29 -34 53 -32 29 2 -22 31 -19 74 4 82 11 3 36 19
56 35 47 37 118 42 135 10 10 -18 8 -20 -26 -20 -41 0 -124 -46 -124 -68 0
-19 120 -6 136 14 13 16 34 19 34 4 0 -5 -9 -19 -20 -30 -21 -21 -26 -40 -11
-40 13 0 61 67 61 85 0 12 6 16 19 12 15 -3 26 6 46 37 28 44 62 72 73 61 4
-4 -3 -14 -15 -22 -13 -9 -23 -21 -23 -29 0 -7 -7 -20 -16 -28 -8 -9 -12 -21
-8 -27 5 -8 9 -8 14 1 6 9 13 7 29 -9 11 -11 26 -21 31 -21 16 0 12 27 -5 34
-24 9 -18 27 21 67 l36 37 39 -20 c50 -26 50 -44 -1 -53 -22 -4 -38 -11 -34
-16 3 -5 0 -9 -7 -9 -28 0 4 -13 38 -16 58 -4 63 -6 63 -21 0 -7 5 -13 10 -13
19 0 51 -40 65 -80 1 -3 5 -13 9 -22 4 -9 5 -21 2 -26 -9 -16 -65 -20 -77 -6
-18 22 -124 12 -186 -18 -12 -6 -29 -8 -38 -4 -9 3 -18 0 -21 -9 -4 -8 -18
-15 -32 -15 -14 0 -22 -3 -19 -6 8 -8 -31 -39 -60 -48 -13 -4 -23 -15 -23 -24
0 -13 -2 -14 -9 -3 -6 10 -10 10 -16 2 -9 -15 -187 -101 -208 -101 -9 0 -22
-9 -30 -21 -10 -13 -17 -17 -22 -10 -3 6 -11 9 -16 6 -5 -4 -14 -3 -19 0 -17
11 15 34 39 28 30 -8 27 15 -4 29 -22 10 -29 8 -51 -13 -16 -15 -24 -32 -22
-49 3 -22 8 -25 51 -28 36 -2 60 3 100 24 79 41 86 44 102 44 8 0 24 9 35 20
11 11 27 20 35 20 8 0 35 15 59 34 24 18 57 37 73 40 15 4 35 14 43 21 9 8 46
20 83 27 37 7 67 15 67 18 0 14 132 -9 150 -25 29 -27 27 -82 -4 -96 -21 -10
-24 -20 -31 -92 -4 -45 -11 -90 -17 -100 -6 -13 -6 -23 2 -33 7 -7 10 -20 7
-29 -4 -8 -2 -17 2 -20 5 -3 14 -44 21 -92 6 -49 15 -95 19 -103 4 -8 7 -57 5
-108 -2 -91 -1 -94 20 -88 11 3 31 6 44 6 18 0 22 5 22 34 0 19 -5 38 -10 41
-6 4 -8 11 -4 16 3 5 0 16 -6 24 -7 8 -9 15 -5 15 4 0 3 6 -2 13 -6 6 -18 36
-27 64 -10 29 -22 55 -27 59 -5 3 -7 15 -4 25 4 11 1 26 -5 34 -6 8 -11 22
-10 32 1 10 1 20 0 23 -2 7 -10 42 -13 60 -7 47 15 162 37 195 22 32 24 44 22
143 -2 114 -7 131 -55 175 -16 15 -28 34 -25 41 7 19 -40 92 -68 108 -44 23
-84 29 -132 17z m-216 -129 c0 -5 -4 -10 -10 -10 -5 0 -10 5 -10 10 0 6 5 10
10 10 6 0 10 -4 10 -10z m-346 -284 c-3 -8 -13 -17 -22 -21 -13 -5 -13 -2 3
15 21 24 26 25 19 6z m-24 -56 c0 -5 -4 -10 -10 -10 -5 0 -10 5 -10 10 0 6 5
10 10 10 6 0 10 -4 10 -10z m-120 -160 c0 -5 -7 -10 -15 -10 -8 0 -15 -5 -15
-11 0 -5 4 -7 10 -4 6 4 7 -6 4 -24 -5 -26 0 -39 31 -76 20 -25 41 -43 46 -40
5 4 6 -2 2 -11 -4 -12 -3 -15 5 -10 7 4 12 2 12 -4 0 -6 4 -9 9 -5 6 3 14 -3
20 -12 6 -10 11 -14 11 -10 0 8 13 -1 51 -35 10 -10 19 -15 19 -10 0 4 5 -1
11 -11 6 -9 14 -15 19 -12 4 3 19 -8 32 -23 13 -16 29 -27 36 -24 14 4 16 -10
2 -24 -6 -6 -6 -15 0 -24 8 -13 10 -12 10 3 0 15 3 15 20 5 10 -7 15 -15 9
-18 -5 -4 2 -12 16 -20 14 -7 25 -18 25 -24 0 -6 10 -20 23 -31 26 -22 42 -55
27 -55 -6 0 -10 6 -10 13 0 8 -4 7 -10 -3 -9 -14 -14 -7 -11 13 1 5 -3 6 -8 3
-14 -9 -32 20 -25 40 6 17 5 17 -7 4 -8 -8 -13 -14 -12 -11 1 2 -8 12 -20 22
-12 10 -18 18 -14 19 4 0 -4 11 -18 24 -15 14 -24 29 -21 35 4 5 1 13 -5 17
-8 5 -9 3 -4 -7 8 -12 6 -12 -8 0 -9 7 -17 21 -17 31 0 9 -11 22 -25 28 -14 7
-28 18 -31 26 -3 8 -12 12 -20 9 -8 -3 -24 3 -35 13 -19 17 -22 17 -47 2 -14
-9 -28 -22 -30 -30 -3 -10 -1 -9 6 1 8 11 11 10 14 -9 1 -13 12 -28 23 -34 10
-6 25 -17 33 -23 7 -7 18 -13 24 -13 6 0 9 -3 6 -6 -4 -3 9 -21 28 -41 37 -38
44 -53 17 -33 -10 7 -1 -3 20 -21 20 -19 37 -40 37 -48 0 -8 3 -11 7 -8 9 10
113 -100 109 -116 -1 -6 -1 -9 1 -4 8 12 30 8 44 -9 10 -12 28 -14 93 -11 72
5 131 12 131 17 0 1 16 4 35 7 18 2 47 11 62 19 17 9 28 10 28 4 0 -6 14 -5
35 5 25 10 33 11 28 2 -4 -7 4 -4 19 5 15 10 35 14 48 11 14 -4 21 -2 17 4 -4
5 6 10 23 10 22 0 30 -5 30 -19 0 -10 5 -18 11 -18 5 0 7 -4 4 -10 -3 -5 -2
-10 4 -10 6 0 7 -7 4 -17 -4 -11 -3 -14 5 -9 9 5 10 1 3 -16 -7 -19 -4 -30 15
-52 21 -23 33 -28 74 -30 33 0 50 -5 50 -14 0 -7 9 -20 19 -29 11 -9 18 -20
15 -25 -3 -4 2 -8 10 -8 9 0 16 -7 16 -15 0 -8 3 -14 8 -14 46 8 32 -12 -40
-54 -27 -15 -48 -32 -48 -37 0 -6 -5 -10 -11 -10 -5 0 -7 4 -4 10 3 6 -1 7 -9
4 -9 -3 -16 -10 -16 -16 0 -5 -5 -6 -10 -3 -6 4 -7 11 -4 17 4 7 2 8 -4 4 -6
-4 -8 -14 -5 -24 6 -14 4 -15 -9 -4 -13 10 -17 10 -21 0 -2 -7 -8 -10 -11 -6
-4 3 6 21 23 39 18 18 30 37 28 43 -2 6 3 17 10 25 11 10 11 16 3 21 -6 4 -9
17 -5 32 4 15 2 29 -4 33 -6 3 -9 10 -6 15 3 4 -3 7 -12 6 -9 -2 -19 -8 -21
-14 -2 -7 -8 -10 -13 -6 -5 3 -9 1 -9 -5 0 -6 -17 -13 -37 -16 -21 -4 -50 -11
-64 -16 -35 -14 -217 -41 -347 -53 -23 -2 -54 -7 -68 -10 -19 -5 -24 -3 -18 5
4 8 3 9 -4 5 -7 -4 -18 -4 -24 1 -7 4 -31 8 -53 9 -52 2 -122 33 -129 57 -2
11 -9 16 -15 12 -6 -3 -11 -1 -11 5 0 7 -6 10 -14 7 -8 -3 -22 1 -33 8 -10 8
-25 15 -34 15 -9 0 -26 9 -38 19 -12 10 -38 22 -59 26 -37 6 -142 54 -142 65
0 14 -58 7 -80 -10 -23 -18 -24 -20 -8 -36 15 -16 15 -18 -3 -37 -11 -12 -18
-25 -16 -31 2 -5 28 -22 57 -37 30 -16 60 -33 66 -38 7 -5 13 -8 15 -7 2 2 23
6 47 10 24 3 47 8 53 11 5 4 9 2 9 -3 0 -5 14 -12 30 -14 17 -3 30 -1 30 3 0
14 45 -4 63 -25 10 -11 16 -16 13 -9 -4 7 1 9 15 6 16 -4 17 -8 7 -14 -9 -6
-7 -9 10 -9 13 0 22 -6 22 -15 0 -8 6 -14 13 -12 6 1 11 -3 10 -9 -1 -6 17
-17 40 -25 23 -7 45 -18 49 -24 5 -6 8 -5 8 4 0 8 2 12 5 9 3 -3 -2 -22 -12
-44 -20 -46 -19 -44 -28 -70 -3 -11 -16 -25 -28 -30 -12 -6 -16 -8 -8 -7 11 3
9 -3 -5 -18 -24 -26 -89 -61 -98 -51 -4 3 -4 -2 0 -12 6 -16 3 -17 -17 -11
-18 5 -20 4 -9 -4 13 -9 12 -12 -5 -25 -11 -9 -26 -16 -33 -16 -7 0 -11 -4 -8
-8 3 -5 0 -9 -7 -9 -24 0 -108 -46 -118 -65 -5 -10 -14 -16 -20 -13 -5 4 -9 1
-9 -6 0 -7 -3 -10 -6 -7 -3 4 -20 2 -37 -3 -36 -11 -91 -21 -124 -23 -13 -1
-23 -4 -23 -8 0 -4 -12 -3 -26 2 -17 7 -23 7 -19 0 7 -11 0 -10 -102 16 -29 7
-62 11 -73 9 -13 -2 -18 0 -14 7 4 7 -1 8 -16 3 -17 -5 -21 -4 -15 6 6 9 3 10
-11 5 -10 -4 -15 -4 -12 0 4 3 -1 14 -12 23 -15 13 -17 20 -8 41 13 30 15 35
26 82 7 26 6 38 -2 42 -6 2 -1 5 10 5 17 1 26 14 43 60 11 32 21 66 21 76 0
11 5 15 16 11 9 -3 12 -2 9 5 -4 5 2 18 13 27 10 9 17 23 14 31 -3 9 0 11 8 6
8 -5 11 -3 8 6 -2 7 5 24 16 37 12 13 21 31 21 40 0 9 6 16 13 14 8 -1 11 2 7
8 -3 5 0 10 7 10 9 0 9 3 -2 10 -9 6 -10 10 -3 10 6 0 10 9 8 20 -2 11 -1 19
3 19 19 -3 32 2 32 12 0 5 -4 7 -10 4 -5 -3 -10 -1 -10 4 0 6 5 11 10 11 6 0
10 7 10 16 0 8 4 13 8 10 8 -5 13 17 16 66 0 14 4 24 7 22 4 -2 7 6 7 19 0 12
5 42 12 67 6 25 12 53 14 62 1 10 12 28 24 41 24 26 29 42 10 32 -7 -4 -6 -1
3 7 9 7 14 23 12 37 -2 13 2 30 8 37 6 7 8 23 4 36 -5 18 -4 20 4 8 9 -12 11
-10 11 13 0 15 6 27 13 27 8 0 7 4 -3 10 -10 7 -11 10 -2 10 7 0 17 11 22 25
5 14 14 25 20 25 6 0 9 4 5 9 -3 5 -1 12 4 15 5 3 14 20 20 36 6 18 6 28 1 25
-6 -4 -10 -1 -10 4 0 6 8 11 18 12 15 0 16 1 0 7 -24 10 -2 38 40 51 1 1 2 -3
2 -9z m1000 -430 c0 -10 -4 -21 -8 -24 -5 -3 -9 8 -9 24 0 16 4 27 9 24 4 -3
8 -14 8 -24z m810 -61 c-11 -8 -8 -9 13 -4 24 5 27 4 15 -8 -7 -8 -19 -12 -27
-9 -10 4 -12 1 -6 -8 5 -9 4 -11 -4 -6 -7 5 -20 -1 -30 -13 -12 -14 -25 -19
-36 -14 -13 5 -16 3 -10 -6 5 -10 2 -11 -14 -6 -16 5 -20 3 -15 -8 3 -10 -2
-18 -15 -22 -12 -3 -21 -14 -21 -23 0 -15 -2 -15 -11 -2 -9 12 -10 12 -5 -3 3
-10 6 -24 6 -30 0 -8 3 -7 9 1 5 9 10 -2 13 -32 3 -24 13 -52 22 -62 10 -9 15
-23 12 -30 -3 -8 -2 -14 3 -14 7 0 32 -51 61 -127 7 -18 10 -39 6 -48 -3 -8 0
-14 6 -12 7 1 13 -5 14 -13 2 -28 16 -60 25 -60 5 0 9 -13 9 -30 0 -16 3 -30
8 -30 4 0 12 -11 19 -25 6 -14 7 -23 2 -19 -16 10 -9 -12 11 -36 11 -13 20
-28 20 -34 0 -6 -5 -4 -10 4 -8 13 -10 12 -10 -2 0 -10 7 -18 16 -18 8 0 12
-5 9 -10 -4 -6 -2 -17 4 -24 7 -8 14 -31 16 -52 3 -22 10 -54 16 -71 6 -18 7
-38 3 -44 -4 -7 -3 -9 3 -6 16 10 25 -23 12 -39 -17 -21 -39 7 -39 51 0 20 -4
34 -8 31 -4 -2 -7 12 -5 32 2 29 1 33 -6 17 -9 -18 -10 -17 -10 8 -1 15 -8 30
-16 33 -8 4 -12 10 -9 15 8 13 -30 11 -44 -3 -9 -9 -12 -9 -12 2 0 7 -3 10 -7
6 -4 -4 -8 -15 -8 -24 0 -9 -6 -17 -14 -17 -8 0 -15 -8 -17 -18 -1 -10 -8 -25
-15 -33 -11 -14 -13 -14 -21 1 -7 12 -1 23 21 43 17 14 31 32 31 39 0 6 12 21
27 32 20 17 27 31 28 66 2 25 -1 42 -6 39 -8 -5 -11 6 -13 54 -1 20 -22 45
-53 61 -13 6 -23 16 -23 22 0 6 4 8 8 5 4 -2 14 5 22 17 12 21 12 21 -5 7 -17
-14 -18 -14 -6 8 7 14 8 22 1 22 -5 0 -10 7 -10 15 0 9 -9 35 -20 57 -11 23
-20 46 -20 51 0 4 -7 16 -16 24 -12 13 -13 17 -2 24 10 6 5 16 -20 42 -17 18
-32 37 -32 42 0 6 5 3 10 -5 5 -8 10 -10 10 -5 0 11 -20 44 -20 33 0 -4 -12 4
-26 17 -15 14 -30 22 -35 19 -5 -3 -6 3 -2 12 4 10 2 15 -3 12 -5 -4 -17 0
-27 7 -16 12 -16 13 8 19 14 4 25 11 25 16 0 5 7 7 15 4 8 -4 15 -2 15 4 0 6
10 8 23 5 18 -4 19 -3 7 6 -13 10 -13 11 0 11 32 0 90 22 85 30 -4 6 1 7 11 3
13 -5 15 -3 9 7 -5 8 -4 11 3 6 6 -3 14 0 19 8 4 7 17 16 28 19 34 8 41 7 25
-4z m-324 -24 c2 -20 -1 -23 -11 -15 -10 8 -15 8 -21 -1 -4 -8 -3 -9 4 -5 7 4
12 2 12 -3 0 -6 -4 -11 -9 -11 -19 0 -41 12 -41 23 0 6 3 7 6 4 4 -3 18 3 32
13 13 11 25 20 26 20 0 0 2 -11 2 -25z m-3000 -41 c-6 -30 28 -70 68 -80 14
-3 23 -11 20 -16 -4 -6 -1 -9 7 -6 8 3 19 -1 26 -8 19 -18 16 -26 -5 -15 -43
23 -60 -59 -19 -97 41 -39 47 -48 34 -62 -10 -10 -8 -10 10 -1 18 9 23 8 28
-10 4 -11 9 -18 12 -15 3 2 14 -4 25 -14 11 -10 27 -16 36 -13 9 4 13 2 9 -4
-4 -6 15 -9 51 -9 31 1 58 6 60 11 3 12 43 25 91 30 19 2 47 13 64 25 16 12
40 23 52 24 13 0 21 5 17 10 -3 5 2 7 10 3 9 -3 21 0 27 6 9 9 11 8 6 -5 -4
-10 -11 -18 -16 -18 -5 0 -4 -12 1 -26 6 -14 6 -23 1 -20 -13 8 -19 -52 -7
-65 8 -9 7 -10 -3 -4 -11 6 -13 4 -6 -11 4 -10 13 -33 19 -50 6 -18 18 -39 25
-48 12 -15 8 -20 -12 -17 -4 1 -22 -6 -40 -16 -34 -18 -38 -19 -75 -21 -13 -1
-20 -6 -17 -12 3 -5 -1 -10 -9 -10 -9 0 -16 -4 -16 -10 0 -5 -7 -7 -15 -4 -10
4 -14 2 -11 -7 3 -8 -10 -24 -31 -37 -26 -17 -34 -19 -29 -7 4 12 1 14 -12 7
-23 -10 -40 -8 -84 12 -21 9 -44 16 -53 16 -8 0 -15 4 -15 8 0 4 -14 16 -31
26 -18 11 -29 13 -24 7 6 -11 -11 -3 -79 36 -11 7 -31 13 -43 13 -13 0 -23 5
-23 11 0 5 -4 8 -8 5 -5 -3 -20 1 -35 9 -14 7 -29 10 -33 7 -4 -4 -4 -2 -1 4
4 6 -10 19 -32 30 -22 10 -36 21 -32 24 4 3 -1 13 -11 23 -10 9 -18 12 -18 6
0 -5 -4 -7 -10 -4 -5 3 -10 2 -10 -4 0 -6 -6 -8 -13 -5 -21 8 -14 -49 9 -79
12 -14 24 -23 28 -20 3 3 6 -2 6 -13 0 -16 2 -17 10 -4 9 13 14 7 11 -13 0 -4
2 -7 6 -6 16 2 53 -14 53 -23 0 -5 6 -8 13 -7 20 2 57 -13 52 -21 -3 -5 4 -6
15 -3 11 3 20 0 20 -6 0 -6 3 -10 8 -9 12 2 106 -44 117 -58 6 -7 25 -21 42
-31 l33 -20 -29 -31 c-15 -18 -30 -32 -32 -32 -3 0 -29 -22 -58 -50 -29 -27
-60 -50 -67 -50 -8 0 -14 -5 -14 -11 0 -6 -9 -8 -21 -4 -16 5 -19 4 -14 -5 6
-10 1 -12 -19 -8 -14 3 -26 1 -26 -3 0 -5 -10 -9 -22 -9 -13 1 -38 -2 -57 -6
-26 -5 -32 -4 -26 6 7 12 -9 11 -99 -6 -10 -2 -38 6 -62 16 -23 11 -48 20 -54
20 -6 0 -8 5 -4 12 5 7 2 9 -9 5 -10 -4 -25 4 -40 21 -13 15 -32 32 -43 38
-10 6 -18 21 -18 32 1 12 -3 19 -9 15 -5 -3 -8 0 -5 8 3 8 -2 20 -9 27 -15 15
-9 47 13 73 8 8 14 21 14 27 0 7 5 12 11 12 13 0 39 25 39 39 0 6 11 18 25 27
14 9 25 22 25 29 0 6 16 28 35 48 19 20 35 40 35 45 0 5 13 21 30 35 16 15 39
45 50 67 11 22 25 40 31 40 6 0 7 5 3 12 -5 7 -2 9 7 6 12 -5 14 1 11 24 -3
21 -1 29 6 24 7 -4 14 4 18 21 4 15 16 41 28 58 11 16 20 36 18 42 -2 7 2 13
9 13 6 0 9 6 6 14 -8 20 42 89 59 82 8 -3 14 -1 14 4 0 6 2 10 5 10 3 0 3 -12
1 -26z m2998 -143 c-7 -7 -34 21 -28 31 3 5 12 1 19 -9 7 -10 12 -20 9 -22z
m-174 -4 c0 -5 4 -6 9 -2 13 7 68 -41 58 -51 -4 -5 -12 -2 -17 6 -8 13 -10 12
-10 -2 0 -10 -6 -18 -12 -19 -7 0 -24 -2 -38 -3 -57 -7 -97 48 -53 72 19 11
63 10 63 -1z m-2620 -2 c0 -7 -30 -13 -34 -7 -3 4 4 9 15 9 10 1 19 0 19 -2z
m37 -46 c-2 -26 -3 -27 -14 -12 -7 9 -13 13 -13 7 0 -5 -5 -1 -11 10 -9 14 -8
20 1 26 22 14 39 0 37 -31z m28 -13 c14 -14 10 -26 -8 -26 -6 0 -7 3 -4 7 4 3
2 12 -4 20 -15 17 -2 17 16 -1z m800 -26 c11 -5 15 -9 9 -9 -7 -1 -15 -8 -18
-17 -3 -8 -2 -12 4 -9 6 3 10 2 10 -3 0 -5 -9 -12 -21 -15 -12 -3 -18 -3 -15
0 3 3 -5 16 -19 29 l-25 23 23 4 c12 2 24 5 27 5 3 0 14 -3 25 -8z m-761 -8
c2 -4 -4 -8 -14 -8 -10 0 -16 4 -14 8 3 4 9 8 14 8 5 0 11 -4 14 -8z m2766
-395 c0 -8 -7 -14 -15 -14 -11 0 -12 4 -4 14 6 7 13 13 15 13 2 0 4 -6 4 -13z
m-15 -37 c3 -6 -1 -7 -9 -4 -18 7 -21 14 -7 14 6 0 13 -4 16 -10z m-21 -35
c-4 -8 -11 -12 -16 -9 -6 4 -5 10 3 15 19 12 19 11 13 -6z m-44 -65 c0 -5 -5
-10 -11 -10 -5 0 -7 5 -4 10 3 6 8 10 11 10 2 0 4 -4 4 -10z m234 -76 c5 -14
4 -15 -9 -4 -17 14 -19 20 -6 20 5 0 12 -7 15 -16z m-14 -19 c0 -12 -19 -12
-23 0 -4 9 -1 12 9 8 7 -3 14 -7 14 -8z m-266 -29 c-6 -16 -24 -23 -24 -8 0
10 22 33 27 28 2 -2 1 -11 -3 -20z m230 -3 c-3 -12 -12 -24 -19 -27 -10 -3 -9
3 3 24 19 33 24 34 16 3z m-261 -58 c-3 -9 -8 -14 -10 -11 -3 3 -2 9 2 15 9
16 15 13 8 -4z m234 9 c-3 -3 -12 -4 -19 -1 -8 3 -5 6 6 6 11 1 17 -2 13 -5z
m-55 -60 c-12 -8 -20 -20 -17 -25 4 -5 2 -9 -3 -9 -6 0 -19 -15 -31 -32 -11
-18 -21 -29 -21 -25 0 11 60 100 74 109 21 14 19 -3 -2 -18z m-232 -44 c-8 -5
-11 -10 -6 -10 5 0 -1 -8 -12 -19 -12 -10 -19 -21 -15 -25 3 -3 1 -6 -5 -6 -7
0 -12 -6 -12 -13 0 -14 -56 -67 -64 -60 -2 2 -7 -5 -11 -16 -3 -12 -11 -19
-16 -16 -15 10 -10 21 16 35 13 7 21 18 18 24 -3 6 -3 8 1 4 10 -8 47 23 40
34 -3 4 0 8 7 8 7 0 10 3 7 6 -8 7 43 64 57 64 6 0 3 -5 -5 -10z m131 -97
c-12 -20 -14 -14 -5 12 4 9 9 14 11 11 3 -2 0 -13 -6 -23z m-35 -31 c-17 -16
-18 -16 -5 5 7 12 15 20 18 17 3 -2 -3 -12 -13 -22z m-272 -77 c-14 -14 -29
-23 -35 -20 -5 3 -6 -1 -3 -9 7 -19 -12 -22 -20 -3 -3 6 -3 1 0 -12 4 -17 2
-22 -7 -19 -8 3 -20 -4 -27 -16 -9 -13 -11 -15 -8 -4 3 11 0 15 -8 12 -7 -3
-13 2 -13 10 0 8 4 13 9 10 4 -3 8 3 8 13 0 15 2 16 10 3 8 -13 10 -13 10 2 0
10 11 19 29 23 16 3 37 15 46 25 10 11 21 17 26 15 4 -3 -4 -17 -17 -30z
m-114 -96 c0 -5 -9 -9 -20 -9 -22 0 -23 1 -14 24 5 13 9 14 20 5 8 -6 14 -15
14 -20z m133 -172 c-11 -12 -25 -30 -30 -41 -10 -17 -10 -17 -16 4 -3 12 -3
19 0 16 9 -8 34 15 27 25 -3 5 2 9 10 9 9 0 16 5 16 12 0 6 3 8 7 5 3 -4 -3
-17 -14 -30z m-72 -86 c-11 -10 -18 -21 -14 -25 3 -3 -1 -6 -10 -6 -9 0 -18
-8 -18 -17 -1 -16 -2 -16 -6 -1 -4 17 59 92 65 76 2 -5 -5 -17 -17 -27z m-66
-70 c-3 -6 -11 -11 -17 -11 -6 0 -6 6 2 15 14 17 26 13 15 -4z m-23 -28 c-6
-2 -10 -8 -7 -13 3 -4 -1 -10 -9 -13 -10 -4 -12 0 -9 14 3 10 13 19 22 18 10
0 11 -2 3 -6z"/>
<path d="M2690 3436 c7 -7 13 -7 20 0 6 6 3 10 -10 10 -13 0 -16 -4 -10 -10z"/>
<path d="M4315 2840 c-3 -5 -1 -10 4 -10 6 0 11 5 11 10 0 6 -2 10 -4 10 -3 0
-8 -4 -11 -10z"/>
<path d="M4425 2370 c-3 -5 -1 -10 4 -10 6 0 11 5 11 10 0 6 -2 10 -4 10 -3 0
-8 -4 -11 -10z"/>
<path d="M1162 2930 c0 -14 2 -19 5 -12 2 6 2 18 0 25 -3 6 -5 1 -5 -13z"/>
<path d="M2066 3842 c-3 -5 1 -9 9 -9 8 0 12 4 9 9 -3 4 -7 8 -9 8 -2 0 -6 -4
-9 -8z"/>
<path d="M1305 3829 c-4 -6 -5 -12 -2 -15 2 -3 7 2 10 11 7 17 1 20 -8 4z"/>
<path d="M2690 3650 c-9 -6 -10 -10 -3 -10 6 0 15 5 18 10 8 12 4 12 -15 0z"/>
<path d="M1740 3466 c0 -2 8 -10 18 -17 15 -13 16 -12 3 4 -13 16 -21 21 -21
13z"/>
<path d="M2416 3453 c-6 -14 -5 -15 5 -6 7 7 10 15 7 18 -3 3 -9 -2 -12 -12z"/>
<path d="M2116 3438 c3 -5 10 -6 15 -3 13 9 11 12 -6 12 -8 0 -12 -4 -9 -9z"/>
<path d="M2136 3422 c-3 -5 1 -9 9 -9 8 0 12 4 9 9 -3 4 -7 8 -9 8 -2 0 -6 -4
-9 -8z"/>
<path d="M2011 3378 c5 -10 11 -18 12 -18 2 0 3 8 3 18 0 10 -6 19 -13 19 -8
0 -9 -6 -2 -19z"/>
<path d="M1056 3373 c-6 -14 -5 -15 5 -6 7 7 10 15 7 18 -3 3 -9 -2 -12 -12z"/>
<path d="M4607 3349 c7 -7 15 -10 18 -7 3 3 -2 9 -12 12 -14 6 -15 5 -6 -5z"/>
<path d="M1076 3335 c-9 -26 -7 -32 5 -12 6 10 9 21 6 23 -2 3 -7 -2 -11 -11z"/>
<path d="M4125 3271 c-9 -15 15 -25 28 -12 9 9 7 10 -7 5 -13 -5 -17 -4 -12 4
4 7 5 12 2 12 -3 0 -7 -4 -11 -9z"/>
<path d="M1250 3256 c0 -2 7 -7 16 -10 8 -3 12 -2 9 4 -6 10 -25 14 -25 6z"/>
<path d="M657 2629 c7 -7 15 -10 18 -7 3 3 -2 9 -12 12 -14 6 -15 5 -6 -5z"/>
<path d="M1997 2509 c7 -7 15 -10 18 -7 3 3 -2 9 -12 12 -14 6 -15 5 -6 -5z"/>
<path d="M4212 2387 c-6 -6 -13 -26 -17 -42 -4 -17 -9 -37 -12 -45 -4 -8 -7
-17 -8 -20 -1 -3 -7 -18 -13 -33 -7 -16 -12 -34 -12 -40 0 -7 -11 -34 -25 -61
-26 -51 -31 -76 -17 -76 11 0 52 82 52 103 0 9 4 18 9 21 5 3 19 44 32 91 13
47 27 85 31 85 5 0 8 7 8 15 0 18 -14 19 -28 2z"/>
<path d="M1800 2345 c0 -9 8 -18 18 -21 53 -18 102 -40 102 -46 0 -5 5 -8 11
-8 19 0 239 -112 239 -121 0 -5 5 -9 11 -9 17 0 48 -43 49 -67 0 -12 4 -24 10
-28 5 -3 7 -12 3 -20 -3 -8 0 -15 6 -15 6 0 11 -9 11 -20 0 -65 76 -271 121
-329 17 -21 27 -53 13 -38 -3 3 -24 -15 -46 -41 -48 -55 -57 -62 -74 -55 -7 3
-23 -2 -36 -11 -29 -21 -245 -23 -270 -3 -9 6 -32 38 -52 71 -31 49 -37 65
-32 97 3 21 1 41 -4 44 -14 9 -12 119 2 133 9 9 8 12 -5 12 -11 0 -17 8 -17
23 0 28 -17 47 -44 47 -20 0 -20 0 0 14 18 14 18 15 -6 24 -17 7 -29 6 -38 -1
-9 -7 -16 -7 -20 0 -4 5 -43 13 -87 17 -80 7 -159 24 -182 39 -7 5 -18 5 -24
1 -14 -8 -60 16 -53 28 3 4 -34 7 -83 6 -64 -2 -91 -7 -100 -18 -11 -12 -14
-13 -22 -1 -4 7 -30 17 -57 22 -27 5 -50 14 -52 19 -2 6 -10 10 -18 10 -8 0
-14 5 -14 10 0 6 -9 10 -20 10 -11 0 -20 -3 -20 -7 2 -18 108 -91 141 -97 33
-6 37 -10 43 -45 8 -49 44 -81 114 -100 29 -8 52 -19 52 -24 0 -5 7 -7 15 -4
8 4 17 2 20 -3 4 -6 19 -10 36 -10 16 0 29 -4 29 -10 0 -5 -4 -10 -9 -10 -5 0
-11 -18 -15 -39 -3 -22 -11 -52 -18 -68 -6 -15 -10 -34 -9 -40 1 -7 -3 -13 -9
-13 -5 0 -10 -7 -10 -15 0 -8 6 -15 14 -15 8 0 16 -5 18 -12 9 -25 40 4 63 57
14 31 25 62 25 70 0 8 5 15 10 15 6 0 9 3 8 8 -1 4 5 19 12 35 12 24 18 27 66
27 52 0 53 0 65 -37 7 -21 18 -48 26 -60 8 -12 12 -27 8 -33 -3 -5 -3 -10 2
-10 4 0 17 -21 27 -48 11 -26 22 -49 25 -52 4 -3 17 -30 31 -60 14 -30 27 -57
30 -60 5 -5 52 -99 55 -110 1 -3 11 -25 22 -50 11 -25 23 -55 27 -67 4 -13 11
-23 15 -23 5 0 16 -25 26 -56 18 -57 37 -76 58 -55 6 6 18 11 28 11 14 0 13 6
-7 48 -13 26 -29 53 -35 60 -6 7 -8 16 -5 19 3 3 -1 15 -9 27 -8 11 -15 28
-15 37 0 9 -13 36 -30 60 -16 24 -30 49 -30 55 0 6 -8 29 -17 50 -9 22 -16 42
-15 47 1 4 -3 7 -8 7 -6 0 -10 7 -10 15 0 9 -8 30 -17 48 -9 18 -18 38 -19 45
-1 7 -12 33 -23 58 -12 24 -21 48 -21 54 0 5 -5 10 -11 10 -5 0 -7 5 -4 10 4
6 -3 25 -14 44 -28 44 -27 49 8 41 22 -5 32 -2 39 12 18 30 25 7 35 -109 8
-95 14 -122 39 -170 52 -99 59 -102 209 -107 92 -2 134 1 144 9 13 10 18 5 35
-34 12 -25 27 -46 35 -46 8 0 15 -3 15 -7 0 -11 84 -63 101 -63 8 0 27 -7 42
-15 32 -17 93 -35 152 -45 22 -4 48 -11 58 -15 12 -5 17 -3 17 9 0 16 -13 20
-86 30 -32 5 -95 28 -113 42 -1 1 6 12 17 24 19 21 22 21 43 6 22 -15 99 -23
99 -10 0 4 -13 32 -28 63 -16 31 -38 74 -48 96 -13 27 -25 39 -37 37 -9 -2
-17 1 -17 6 0 5 -17 14 -37 20 -40 12 -53 5 -53 -30 0 -10 -5 -18 -10 -18 -6
0 -10 -6 -9 -12 1 -7 -3 -26 -10 -42 -14 -34 -7 -60 13 -53 8 3 20 -1 26 -9 7
-8 19 -14 26 -14 12 0 11 -5 -2 -26 -14 -20 -22 -24 -43 -19 -14 4 -27 11 -29
16 -2 5 -21 19 -43 31 -21 12 -39 28 -39 35 0 7 -4 13 -10 13 -5 0 -14 9 -20
20 -8 16 -8 24 4 35 8 8 20 15 26 15 11 0 76 47 109 78 12 11 12 15 1 22 -7 4
-9 13 -6 19 4 6 2 11 -3 11 -6 0 -11 5 -11 10 0 6 -11 28 -25 50 -14 22 -25
42 -25 44 0 3 21 8 46 12 25 3 48 13 51 21 8 20 -4 28 -20 14 -8 -6 -21 -9
-30 -5 -8 3 -18 1 -22 -5 -3 -6 -14 -11 -24 -11 -14 0 -22 15 -34 57 -19 64
-13 77 33 87 17 3 30 12 30 20 0 22 -34 76 -47 76 -7 0 -13 5 -13 11 0 5 -4 8
-10 4 -5 -3 -7 -12 -3 -20 3 -10 -1 -15 -15 -15 -17 0 -23 10 -32 57 -7 32
-19 62 -27 68 -7 6 -19 21 -26 34 -7 14 -25 29 -42 34 -16 5 -42 18 -57 28
-14 11 -31 19 -38 19 -7 0 -24 9 -40 20 -15 11 -29 17 -32 15 -2 -3 -22 4 -44
15 -26 13 -33 19 -19 20 18 0 18 1 2 17 -14 15 -21 16 -37 5 -17 -10 -26 -9
-57 8 -45 24 -53 25 -53 5z m-415 -314 c-7 -13 3 -18 50 -25 22 -4 54 -11 70
-16 35 -11 145 -30 195 -34 19 -2 41 -4 48 -5 8 0 10 -6 6 -13 -5 -10 -4 -10
6 -1 15 14 33 0 42 -34 7 -27 5 -28 -18 -6 -16 16 -16 16 -10 -4 5 -17 1 -22
-20 -27 -23 -6 -25 -10 -19 -34 4 -15 9 -34 10 -42 3 -19 20 -56 45 -97 11
-18 17 -40 14 -48 -4 -8 -1 -15 6 -15 6 0 9 -4 5 -10 -3 -5 6 -27 20 -50 14
-22 22 -40 19 -40 -3 0 1 -12 11 -26 9 -14 14 -32 11 -40 -3 -8 -2 -14 3 -14
14 0 36 -52 40 -93 1 -5 5 -5 11 -2 6 4 7 -1 3 -11 -4 -12 -3 -15 6 -10 8 5
12 3 11 -5 -3 -22 11 -59 23 -59 6 0 8 -2 5 -5 -9 -10 -38 7 -38 21 0 8 -10
34 -21 57 -12 23 -21 43 -20 45 4 8 -2 20 -25 47 -14 16 -20 31 -15 33 6 2 11
8 11 13 0 6 -4 7 -10 4 -5 -3 -12 6 -16 20 -3 14 -10 25 -15 25 -5 0 -5 7 -2
17 4 10 2 14 -4 10 -11 -7 -28 36 -24 59 1 7 -6 11 -16 10 -12 -1 -18 7 -19
21 -1 13 -6 28 -11 35 -6 7 -14 29 -18 48 -4 19 -12 41 -17 48 -6 6 -7 12 -2
12 4 0 -6 14 -24 31 -28 27 -37 30 -74 27 -66 -7 -102 -23 -91 -40 2 -5 -1 -8
-7 -8 -6 0 -8 -4 -5 -10 3 -5 2 -10 -4 -10 -6 0 -7 -7 -4 -17 4 -11 3 -14 -5
-9 -8 4 -10 2 -6 -7 3 -8 -2 -21 -10 -30 -8 -8 -12 -18 -8 -21 3 -4 -2 -4 -12
0 -13 5 -14 9 -6 14 7 4 9 13 6 19 -4 6 -2 11 3 11 6 0 10 3 9 8 -5 18 13 73
22 67 5 -3 10 -1 10 4 0 6 -5 11 -11 11 -7 0 -17 7 -23 15 -6 8 -27 16 -46 18
-20 2 -42 7 -50 12 -8 5 -21 10 -29 12 -8 1 -17 7 -21 13 -3 6 -17 13 -30 15
-13 2 -27 10 -31 16 -4 7 -12 8 -20 4 -9 -6 -11 -3 -6 8 4 10 2 17 -4 17 -6 0
-9 7 -6 15 4 8 2 17 -4 21 -24 14 1 28 55 31 32 1 61 5 64 8 9 9 43 5 37 -4z
m959 -53 c-4 -6 0 -14 7 -19 9 -6 10 -9 2 -9 -6 0 -14 4 -17 9 -3 5 -16 7 -29
5 -18 -3 -17 -2 6 9 15 7 24 17 20 22 -5 4 -2 5 5 1 7 -4 9 -12 6 -18z m-24
-38 c-8 -5 -18 -6 -24 -3 -5 4 -1 10 10 13 24 9 34 2 14 -10z m-860 -270 c0
-11 -4 -20 -9 -20 -5 0 -7 9 -4 20 3 11 7 20 9 20 2 0 4 -9 4 -20z m1015 -120
c-3 -5 1 -10 9 -10 9 0 16 -6 16 -12 0 -9 4 -8 10 2 9 13 11 13 20 0 5 -8 10
-11 10 -6 0 5 7 3 15 -4 8 -7 12 -16 9 -21 -3 -5 0 -9 6 -9 7 0 9 -8 5 -20 -4
-11 -2 -20 4 -20 6 0 11 -5 11 -11 0 -5 -6 -7 -12 -3 -7 3 -1 -5 15 -19 24
-21 25 -26 11 -31 -10 -4 -22 -2 -28 4 -8 8 -5 9 9 5 16 -6 17 -5 5 4 -8 6
-23 8 -32 5 -27 -8 -41 5 -26 24 12 15 11 16 -5 3 -10 -8 -15 -21 -12 -28 3
-8 -12 2 -34 22 -41 40 -40 32 -15 123 2 6 6 12 9 12 4 0 3 -4 0 -10z m-488
-320 c1 -11 -2 -20 -6 -20 -5 0 -11 9 -14 20 -3 12 0 20 7 20 6 0 12 -9 13
-20z m30 -56 c-3 -3 -12 -4 -19 -1 -8 3 -5 6 6 6 11 1 17 -2 13 -5z m11 -39
c-3 -3 -9 2 -12 12 -6 14 -5 15 5 6 7 -7 10 -15 7 -18z"/>
<path d="M1755 1711 c-6 -11 13 -26 22 -17 4 3 1 6 -6 6 -7 0 -9 5 -6 10 3 6
4 10 1 10 -3 0 -7 -4 -11 -9z"/>
<path d="M1330 2254 c0 -8 5 -12 10 -9 6 4 8 11 5 16 -9 14 -15 11 -15 -7z"/>
<path d="M2590 2253 c-39 -15 -71 -73 -39 -73 7 0 9 -9 6 -21 -4 -15 2 -25 26
-40 18 -10 40 -19 50 -19 9 0 25 -4 35 -9 9 -5 56 -18 105 -28 48 -9 87 -20
87 -23 0 -6 -111 -50 -128 -50 -7 0 -12 -5 -12 -11 0 -5 -4 -8 -9 -5 -5 3 -30
-5 -55 -19 -26 -14 -56 -25 -67 -25 -23 0 -24 -21 -4 -60 14 -27 55 -43 55
-22 0 5 32 16 70 26 39 10 73 22 76 27 2 4 11 6 19 2 8 -3 15 -1 15 4 0 8 63
33 83 33 3 0 18 -26 33 -57 15 -32 30 -60 33 -63 4 -3 13 -19 20 -37 15 -36
32 -35 68 6 26 30 28 44 11 63 -27 28 -78 156 -78 195 0 7 12 16 28 19 15 4
42 15 59 26 18 11 37 17 43 13 5 -3 10 -2 10 2 0 5 19 13 42 19 33 7 48 17 63
42 l20 33 100 -6 c55 -3 102 -10 103 -16 2 -5 8 -9 14 -9 6 0 16 -7 22 -16 10
-13 -7 -33 -99 -123 -130 -126 -239 -221 -254 -221 -6 0 -11 -4 -11 -10 0 -5
-6 -10 -14 -10 -7 0 -36 -18 -63 -39 -55 -44 -97 -59 -108 -40 -5 7 -1 15 8
21 19 10 13 32 -16 61 -16 16 -29 18 -70 14 -28 -2 -53 -10 -55 -16 -5 -14
-59 -14 -68 0 -3 6 -20 9 -37 6 -17 -2 -42 2 -56 9 -36 19 -50 17 -44 -4 3
-14 21 -21 74 -30 85 -15 149 -15 149 -2 0 16 86 12 100 -5 7 -9 11 -16 9 -18
-44 -25 -49 -27 -49 -15 0 9 -3 9 -12 0 -17 -17 -120 -15 -154 3 -34 17 -54
19 -54 4 0 -22 70 -39 161 -38 94 1 113 -6 107 -37 -3 -16 -14 -20 -63 -22
-72 -4 -172 15 -179 34 -3 8 -12 14 -20 14 -11 0 -12 -5 -3 -25 15 -32 22 -34
123 -41 46 -4 84 -11 84 -16 0 -5 4 -7 9 -3 5 3 12 1 15 -4 3 -5 -1 -11 -9
-15 -8 -3 -15 -13 -15 -22 0 -8 -6 -14 -12 -11 -7 2 -12 9 -11 15 2 6 -19 13
-45 17 -26 3 -60 12 -76 21 -16 8 -31 12 -35 9 -11 -11 16 -40 40 -43 13 -2
31 -6 39 -9 8 -3 21 -5 28 -4 15 3 52 -27 52 -41 0 -5 -10 -13 -22 -17 -17 -7
-26 -5 -35 6 -7 9 -24 13 -45 11 l-33 -3 39 -23 c34 -20 45 -22 83 -14 42 9
45 8 53 -14 5 -13 17 -24 25 -24 9 0 18 -7 21 -15 4 -8 11 -15 16 -15 6 0 33
-18 60 -40 28 -22 59 -40 68 -40 10 0 20 -4 22 -10 2 -5 28 -22 58 -37 62 -32
76 -53 35 -53 -41 0 -95 -63 -95 -111 0 -54 14 -85 56 -122 52 -45 92 -63 107
-48 6 6 23 11 38 11 15 0 39 4 53 10 21 8 30 5 51 -14 14 -13 37 -27 52 -31
25 -6 31 -2 65 49 4 7 18 2 38 -12 28 -21 34 -22 60 -11 16 8 27 16 25 19 -2
4 23 4 56 2 34 -3 70 0 82 7 12 6 34 15 50 21 15 5 27 14 27 19 0 5 9 11 20
14 15 4 20 14 20 41 0 25 6 38 20 46 23 12 27 50 6 50 -8 0 -16 7 -20 15 -3 8
-13 15 -23 15 -59 0 -250 68 -261 93 -2 4 -9 7 -15 7 -7 0 -43 20 -80 45 -37
24 -74 42 -82 39 -18 -7 -20 -24 -2 -24 7 0 28 -13 47 -30 19 -16 41 -29 48
-30 6 0 12 -4 12 -10 0 -5 8 -10 19 -10 10 0 33 -10 52 -23 19 -13 61 -31 94
-41 33 -10 66 -23 72 -28 7 -6 20 -8 28 -4 8 3 15 1 15 -4 0 -6 10 -10 23 -10
22 -1 57 -21 57 -34 0 -9 -36 -2 -52 11 -7 6 -37 14 -67 18 -30 4 -61 14 -69
21 -7 8 -21 14 -30 14 -10 0 -28 7 -40 16 -22 15 -52 13 -52 -3 0 -12 50 -33
76 -33 13 0 27 -8 32 -17 7 -12 27 -18 71 -21 36 -3 61 -9 61 -16 0 -6 9 -17
20 -24 24 -15 28 -47 4 -38 -9 3 -19 6 -24 6 -4 0 -10 8 -12 18 -4 14 -18 20
-57 25 -28 3 -63 15 -76 25 -14 11 -45 26 -70 33 -25 7 -45 17 -45 21 0 4 -7
8 -16 8 -9 0 -14 -7 -12 -16 2 -10 24 -23 56 -33 29 -10 56 -22 60 -27 9 -14
68 -34 98 -34 12 0 36 -13 52 -30 27 -26 28 -30 12 -35 -10 -3 -36 3 -57 15
-21 11 -43 20 -48 20 -6 0 -29 8 -51 19 -21 10 -63 24 -91 32 -29 7 -53 16
-53 21 0 4 -9 8 -20 8 -39 0 -20 -27 28 -40 26 -6 58 -17 72 -25 14 -7 50 -20
80 -30 52 -17 80 -35 80 -51 0 -10 -102 4 -109 15 -3 5 -26 15 -51 22 -25 7
-51 21 -58 31 -7 10 -18 16 -23 12 -5 -3 -15 -1 -22 4 -7 5 -28 13 -47 17 -32
7 -69 35 -204 153 -26 23 -54 42 -62 42 -8 0 -14 4 -14 10 0 5 -19 18 -42 29
-59 27 -101 54 -111 69 -4 6 -13 12 -20 12 -15 1 -97 77 -97 90 0 6 -4 10 -10
10 -21 0 -9 50 19 79 l28 29 52 -58 c28 -32 51 -63 51 -68 0 -14 35 -42 51
-42 8 0 30 -11 49 -25 31 -23 42 -25 144 -25 61 0 120 3 131 6 25 7 76 75 106
140 13 27 27 51 31 52 15 7 8 22 -11 22 -12 0 -27 -14 -39 -37 -49 -94 -58
-108 -74 -121 -10 -7 -18 -20 -18 -28 0 -20 -186 -20 -227 0 -15 8 -43 20 -60
27 -18 6 -33 17 -33 24 0 8 -6 15 -14 17 -20 5 -96 97 -96 117 0 9 -5 22 -12
29 -8 8 -8 12 -1 12 6 0 13 9 16 19 3 13 17 22 41 26 21 4 36 13 36 21 0 8 5
14 11 14 6 0 30 16 53 35 24 19 48 35 53 35 6 0 13 7 17 15 3 8 11 15 17 15
23 0 309 268 309 289 0 7 11 24 25 39 14 15 25 29 25 33 0 3 -25 4 -55 1 -36
-3 -66 1 -87 11 -58 26 -477 44 -485 20 -2 -5 -19 -7 -38 -5 -19 2 -35 0 -35
-5 0 -11 -99 -11 -117 0 -6 4 -15 3 -18 -3 -5 -8 -11 -8 -20 0 -10 8 -15 8
-20 0 -5 -8 -12 -7 -24 4 -10 9 -20 13 -24 10 -3 -3 -16 1 -29 10 -24 17 -25
17 -48 9z m546 -31 c-3 -4 11 -9 31 -9 50 -2 64 -19 34 -44 -13 -11 -30 -18
-37 -15 -7 3 -16 1 -19 -4 -3 -4 -16 -7 -30 -6 -13 2 -22 0 -20 -4 3 -4 -24
-20 -60 -35 -77 -33 -87 -53 -61 -126 10 -27 14 -54 10 -60 -4 -7 -3 -9 3 -6
11 7 26 -16 28 -40 0 -6 8 -20 17 -30 11 -11 14 -24 9 -32 -7 -11 -13 -9 -29
7 -11 11 -24 17 -28 14 -5 -4 -2 1 5 11 10 13 11 20 2 31 -9 11 -9 15 1 19 7
3 4 6 -8 6 -11 1 -35 19 -53 41 -17 22 -37 40 -44 40 -7 0 -6 -4 3 -10 12 -8
10 -10 -10 -11 -14 -1 -33 0 -44 1 -10 1 -16 -2 -13 -8 4 -5 -16 -15 -44 -22
-28 -8 -53 -18 -55 -22 -3 -5 -10 -6 -15 -2 -6 3 -19 -2 -30 -12 -18 -16 -19
-16 -13 -1 5 13 2 16 -10 11 -9 -3 -14 -10 -11 -14 8 -13 -20 -19 -36 -8 -11
8 -10 9 4 4 13 -4 17 -1 15 11 -2 10 2 18 7 19 30 3 64 17 59 25 -3 5 9 7 26
5 17 -2 29 -1 26 1 -2 3 23 19 57 37 41 21 65 29 69 22 10 -14 3 47 -6 63 -4
7 -15 11 -24 9 -10 -1 -23 1 -30 6 -7 4 -23 9 -35 11 -12 2 -53 11 -91 19 -69
16 -100 31 -91 46 3 5 1 10 -4 12 -5 1 -11 12 -13 23 -4 27 48 34 66 9 7 -10
20 -15 28 -11 9 3 21 0 27 -6 6 -6 11 -7 11 -3 0 5 7 3 15 -4 9 -7 15 -8 15
-2 0 5 7 13 16 16 8 3 12 2 9 -3 -3 -6 16 -7 45 -4 34 4 55 1 67 -8 11 -9 14
-10 10 -2 -8 13 10 19 78 26 22 2 49 8 59 12 13 6 17 5 13 -2 -5 -8 6 -8 35
-1 23 5 44 11 47 14 8 7 22 4 17 -4z m148 -1024 c10 -9 16 -21 12 -26 -3 -5
10 -16 29 -25 19 -9 35 -22 35 -29 0 -9 3 -8 10 2 8 12 10 10 11 -10 0 -14 3
-19 6 -12 3 9 10 7 24 -9 10 -12 19 -19 19 -16 0 3 12 0 27 -8 15 -8 30 -12
35 -9 4 3 8 1 8 -5 0 -6 6 -8 13 -5 7 2 24 -5 37 -16 13 -11 30 -18 38 -15 9
3 12 0 9 -9 -4 -10 -1 -13 9 -9 9 3 14 -1 14 -12 0 -15 -4 -15 -36 4 l-35 21
-37 -25 c-46 -31 -47 -31 -95 2 -28 19 -41 23 -46 15 -11 -17 -72 -23 -90 -9
-11 9 -13 9 -8 0 5 -8 -2 -11 -24 -11 -20 1 -33 7 -37 19 -4 10 -11 19 -17 19
-5 1 -9 6 -8 11 2 4 -4 6 -11 3 -21 -8 -43 35 -25 47 11 7 11 9 -1 9 -9 0 -16
9 -16 20 0 11 4 20 8 20 4 0 8 6 8 13 0 24 44 62 69 59 13 -2 21 0 17 6 -10
16 28 8 48 -10z"/>
<path d="M3000 1846 c0 -3 9 -10 20 -16 11 -6 20 -8 20 -6 0 3 -9 10 -20 16
-11 6 -20 8 -20 6z"/>
<path d="M3325 1000 c-3 -5 -2 -10 4 -10 5 0 13 5 16 10 3 6 2 10 -4 10 -5 0
-13 -4 -16 -10z"/>
<path d="M2374 2209 c-4 -7 -21 -9 -40 -6 -19 3 -34 2 -34 -4 0 -5 4 -9 10 -9
5 0 12 -12 16 -27 9 -42 28 -83 37 -83 5 0 6 -4 3 -8 -5 -8 45 -114 64 -138 6
-6 10 -16 9 -20 -2 -10 20 -66 56 -139 13 -27 36 -77 50 -110 15 -33 39 -87
55 -120 46 -96 90 -195 90 -201 0 -4 13 -34 29 -68 16 -33 40 -83 52 -111 13
-27 24 -53 26 -56 5 -8 -109 -31 -116 -23 -3 3 4 13 17 21 12 9 22 22 22 30 0
11 4 11 20 3 24 -13 25 -7 4 30 -21 34 -67 63 -119 73 -116 22 -139 29 -174
48 -18 11 -36 18 -38 15 -10 -10 7 -36 23 -36 9 0 31 -8 48 -19 17 -10 58 -22
91 -26 69 -8 125 -38 125 -66 0 -23 -32 -26 -50 -4 -7 8 -23 15 -36 15 -13 0
-24 5 -24 11 0 6 -7 9 -15 6 -8 -4 -17 -2 -20 3 -4 6 -13 10 -22 10 -13 0 -56
23 -138 73 -11 7 -25 19 -32 27 -9 12 -14 13 -25 2 -10 -10 -7 -17 17 -37 38
-30 185 -105 206 -105 36 0 89 -30 89 -50 0 -11 -5 -20 -11 -20 -19 0 -94 24
-99 31 -3 4 -12 7 -20 6 -31 -3 -172 74 -188 104 -10 16 -21 27 -26 26 -20 -6
-17 -27 7 -51 13 -13 27 -32 31 -41 3 -9 15 -19 26 -22 11 -3 20 -9 20 -13 0
-5 15 -14 34 -20 19 -6 51 -24 72 -40 20 -17 41 -27 46 -24 10 6 38 -13 38
-27 0 -8 -33 -6 -60 4 -8 3 -37 11 -65 18 -107 27 -243 118 -411 276 -26 24
-42 14 -23 -14 7 -10 33 -36 60 -58 26 -22 63 -53 81 -70 62 -55 88 -75 98
-75 6 0 13 -7 16 -15 4 -9 13 -14 22 -13 9 2 18 -5 20 -14 3 -14 -3 -18 -24
-18 -25 0 -26 -2 -20 -37 3 -21 6 -43 6 -50 0 -7 17 -20 38 -29 50 -23 49 -21
22 -46 -20 -19 -27 -20 -53 -10 -19 7 -35 8 -40 3 -12 -12 0 -31 18 -31 7 0
15 -6 18 -14 8 -21 59 -13 68 10 17 47 100 85 112 52 3 -10 9 -10 25 -1 11 6
114 19 228 28 115 9 216 19 224 22 8 3 39 5 68 3 35 -1 52 2 52 11 0 8 13 10
40 6 36 -5 61 6 47 20 -9 8 -310 -18 -334 -29 -12 -6 -42 -8 -67 -6 -25 3 -46
2 -48 -2 -5 -11 -166 -21 -173 -10 -3 6 -1 10 4 10 6 0 11 11 11 25 0 21 5 25
28 25 16 0 37 9 47 20 10 11 22 17 27 13 14 -8 289 16 310 28 9 5 19 5 22 1 2
-4 32 -5 66 -4 45 3 59 7 51 15 -6 6 -11 24 -11 40 0 22 -3 27 -12 19 -7 -5
-51 -12 -97 -14 -75 -4 -84 -3 -89 14 -2 10 -8 18 -13 18 -5 0 -6 6 -3 14 3 8
-3 20 -13 27 -10 8 -25 33 -32 57 -8 23 -18 42 -23 42 -5 0 -7 4 -4 9 4 5 0
22 -8 38 -35 71 -49 110 -47 131 1 12 -2 22 -8 22 -6 0 -11 6 -11 13 0 6 -9
23 -19 36 -10 14 -17 31 -14 38 3 7 -2 15 -10 19 -9 3 -19 19 -22 35 -4 16
-11 31 -16 34 -5 4 -9 15 -9 26 0 10 -5 19 -10 19 -6 0 -10 6 -8 13 1 6 -6 27
-15 45 -10 18 -16 36 -13 41 3 4 -10 39 -29 76 -19 37 -35 75 -35 85 0 9 -11
33 -24 53 -13 19 -27 46 -31 58 -4 13 -18 47 -31 76 -13 28 -24 57 -24 62 0
14 -27 14 -36 0z m6 -39 c-13 -8 -13 -10 2 -10 9 0 20 -5 24 -12 5 -7 3 -8 -6
-3 -8 5 -7 -1 3 -16 20 -28 22 -43 5 -34 -7 4 -6 1 2 -7 9 -7 14 -22 12 -33
-2 -16 -1 -17 7 -5 8 12 11 11 16 -5 4 -11 10 -27 15 -36 5 -10 4 -21 -3 -29
-10 -10 -8 -12 8 -8 17 4 21 0 20 -18 0 -13 -6 -29 -14 -36 -12 -11 -13 -10
-7 6 4 13 0 26 -15 39 -17 16 -18 21 -7 28 10 7 8 9 -7 9 -17 0 -17 2 -5 10
13 8 12 10 -2 10 -12 0 -18 8 -18 21 0 11 -9 34 -21 50 -11 16 -24 42 -28 57
-7 24 -6 28 13 30 16 1 18 -1 6 -8z m128 -254 c-2 -1 -12 -8 -22 -16 -18 -14
-19 -14 -7 8 7 12 17 20 22 16 6 -3 9 -7 7 -8z m8 -31 c11 -11 12 -15 3 -15
-7 0 -4 -6 7 -15 10 -8 15 -15 11 -15 -4 0 -2 -10 5 -22 7 -13 11 -29 9 -37
-1 -7 2 -11 6 -8 5 3 10 -3 10 -14 1 -11 8 -33 17 -49 8 -17 10 -32 5 -36 -5
-3 -9 -11 -8 -17 0 -9 2 -9 6 1 2 6 9 12 14 12 4 0 6 -7 2 -15 -3 -9 2 -22 12
-29 11 -8 16 -20 12 -29 -4 -11 -2 -14 7 -11 7 3 16 -2 20 -11 4 -11 2 -14 -6
-9 -7 4 -2 -6 10 -23 16 -23 19 -33 10 -36 -8 -4 -7 -6 4 -6 9 -1 20 -6 24
-13 5 -7 2 -9 -7 -4 -8 5 -8 2 2 -6 9 -7 16 -20 16 -28 0 -8 2 -22 4 -30 2 -8
-3 -15 -11 -15 -8 0 -17 11 -18 24 -2 13 -15 42 -29 64 -13 21 -20 36 -14 33
18 -11 13 3 -9 27 -11 12 -19 28 -18 37 2 8 -5 22 -15 31 -17 13 -25 37 -29
87 -1 6 -5 12 -10 12 -5 0 -6 5 -3 10 3 6 1 10 -5 10 -6 0 -9 4 -5 9 3 5 1 12
-5 16 -6 4 -8 10 -5 15 3 5 -5 16 -17 24 -12 9 -17 16 -10 16 9 0 8 8 -6 28
-10 15 -17 33 -15 40 6 16 11 15 29 -3z m235 -584 c-4 -13 -5 -13 -9 0 -3 7
-11 21 -18 30 -12 13 -13 34 -4 69 1 3 9 -15 19 -40 10 -25 15 -52 12 -59z
m15 -20 c-4 -5 -2 -11 4 -13 6 -2 6 -8 0 -18 -8 -13 -10 -12 -10 3 0 9 -6 17
-12 17 -9 0 -8 4 2 10 19 12 23 12 16 1z m39 -88 c4 -12 14 -24 24 -27 9 -2 5
-4 -9 -3 -18 2 -24 7 -22 21 2 10 -1 16 -5 13 -5 -3 -9 9 -10 26 -1 33 1 29
22 -30z m35 -53 c0 -5 0 -12 0 -15 -1 -3 6 -13 15 -21 8 -9 15 -19 15 -24 0
-8 -35 -20 -63 -20 -17 0 -17 1 -3 16 19 19 21 60 4 67 -7 3 -3 6 10 6 12 1
22 -3 22 -9z m-295 -49 c3 -5 1 -12 -4 -15 -5 -3 -11 1 -15 9 -6 16 9 21 19 6z
m54 -26 c12 7 15 -8 4 -18 -8 -9 -43 22 -43 37 0 6 7 3 15 -8 7 -10 18 -15 24
-11z m60 -6 c5 8 15 9 32 2 29 -12 4 -17 -58 -12 -15 1 -16 3 -3 11 10 6 16 6
19 -1 2 -8 6 -8 10 0z m121 1 c0 -5 -5 -10 -11 -10 -5 0 -7 5 -4 10 3 6 8 10
11 10 2 0 4 -4 4 -10z m-402 -21 c18 -6 30 -15 27 -19 -3 -4 1 -8 8 -7 34 1
58 -4 53 -11 -3 -5 1 -9 9 -9 8 0 15 4 15 9 0 5 6 3 14 -4 8 -8 10 -15 4 -19
-5 -3 -9 -9 -9 -13 6 -44 2 -48 -43 -42 -26 4 -47 3 -50 -3 -8 -13 -37 -2 -53
18 -6 9 -15 12 -19 8 -4 -4 -13 7 -18 25 -11 32 -10 36 30 77 1 1 15 -4 32
-10z"/>
<path d="M1230 2176 c0 -2 7 -7 16 -10 8 -3 12 -2 9 4 -6 10 -25 14 -25 6z"/>
<path d="M3950 2170 c0 -6 -34 -46 -75 -89 -41 -43 -75 -81 -75 -85 0 -3 -8
-15 -17 -26 -10 -11 -26 -29 -35 -40 -10 -11 -18 -23 -18 -26 0 -4 -8 -13 -17
-20 -17 -13 -17 -13 -1 -14 10 0 30 15 45 32 16 18 58 65 96 104 37 39 67 76
67 82 0 7 4 12 10 12 10 0 40 52 40 70 0 5 -4 10 -10 10 -5 0 -10 -5 -10 -10z"/>
<path d="M4705 2160 c-3 -6 -17 -7 -31 -4 -18 5 -32 0 -49 -16 -23 -21 -24
-30 -12 -60 4 -8 8 -37 9 -65 3 -48 4 -50 36 -53 18 -2 32 1 32 7 0 13 123 15
148 2 9 -5 42 -14 72 -21 53 -12 151 -57 158 -72 2 -5 8 -8 14 -8 14 0 138
-122 138 -137 0 -6 3 -13 8 -15 10 -4 70 -128 76 -158 1 -3 5 -11 10 -18 4 -7
5 -24 2 -37 -3 -13 -2 -27 4 -30 13 -8 13 -132 -1 -141 -6 -3 -8 -17 -4 -31 3
-14 2 -30 -3 -36 -5 -7 -15 -30 -22 -52 -7 -22 -25 -61 -41 -88 -16 -26 -29
-50 -29 -52 0 -16 -137 -136 -177 -156 -27 -13 -50 -27 -53 -30 -9 -11 -103
-39 -130 -39 -15 0 -30 -3 -34 -8 -9 -9 -136 -10 -136 -1 0 3 -24 9 -52 12
-179 21 -394 228 -433 417 -12 54 -21 250 -13 250 5 0 8 7 8 15 0 25 23 65 37
65 10 0 14 9 12 28 -7 61 122 211 231 270 52 29 55 32 55 71 0 23 -3 41 -7 41
-4 0 -10 20 -13 43 -11 70 -16 73 -71 45 -72 -36 -164 -97 -164 -108 0 -6 -6
-10 -13 -10 -15 0 -77 -61 -77 -76 0 -5 -13 -21 -29 -35 -17 -15 -33 -38 -37
-53 -7 -31 -18 -33 -30 -6 -7 14 -13 17 -24 10 -12 -7 -12 -12 -2 -22 18 -18
15 -38 -7 -38 -20 0 -71 -36 -71 -50 0 -5 14 -17 31 -26 18 -9 28 -19 23 -23
-19 -13 -37 -67 -35 -103 2 -21 -2 -38 -7 -38 -5 0 -7 -11 -4 -25 4 -23 1 -25
-32 -25 -21 0 -55 10 -76 23 l-40 22 -40 -45 c-22 -25 -40 -53 -40 -62 0 -10
-18 -41 -40 -70 -32 -43 -37 -54 -25 -61 11 -6 29 7 66 47 53 58 66 64 98 44
23 -14 51 -4 51 19 1 10 10 29 21 42 29 35 54 18 54 -37 0 -22 4 -44 8 -48 4
-4 7 -25 7 -46 0 -47 31 -158 60 -217 27 -54 88 -143 107 -154 7 -4 13 -13 13
-20 1 -14 53 -62 128 -117 99 -73 246 -130 335 -130 25 0 49 -4 52 -10 3 -5
28 -10 56 -10 27 0 49 5 49 10 0 6 21 10 46 10 42 0 173 28 184 40 3 3 25 15
50 28 93 46 119 64 176 121 92 91 124 125 124 134 0 5 15 34 34 65 19 32 42
86 51 122 9 36 21 70 27 77 5 7 8 28 7 47 -2 19 0 38 4 42 9 9 9 128 0 138 -4
4 -6 27 -4 51 2 30 -2 45 -9 45 -7 0 -10 7 -6 15 3 8 1 15 -3 15 -5 0 -12 19
-16 43 -6 37 -49 133 -66 147 -4 3 -9 15 -13 27 -9 29 -182 203 -221 223 -17
8 -32 17 -35 20 -18 17 -102 54 -154 67 -33 9 -66 20 -73 25 -7 5 -30 8 -52 7
-22 -2 -43 0 -47 4 -11 11 -102 8 -109 -3z m99 -31 c-2 -4 21 -6 51 -5 46 2
56 -1 61 -16 3 -10 10 -16 15 -12 5 3 7 10 4 15 -4 5 -1 9 4 9 6 0 11 -4 11
-8 0 -8 76 -36 82 -31 2 1 14 -4 28 -11 14 -8 29 -14 33 -15 4 0 11 -5 15 -11
4 -6 27 -21 52 -35 49 -26 90 -62 90 -78 0 -6 6 -8 14 -5 9 3 19 -4 26 -16 10
-18 9 -21 -2 -15 -7 4 -2 -2 11 -13 18 -15 21 -21 10 -25 -9 -3 -6 -6 7 -6 25
-1 58 -46 48 -63 -5 -7 -3 -8 5 -4 8 5 14 0 18 -13 3 -12 9 -21 13 -21 8 0 23
-39 21 -54 -1 -5 2 -12 7 -15 5 -3 12 -17 16 -31 6 -19 5 -21 -3 -10 -8 11
-11 11 -11 2 0 -7 6 -15 13 -18 8 -3 14 -10 15 -17 0 -7 6 -39 12 -72 22 -111
16 -248 -12 -315 -8 -19 -14 -45 -13 -57 1 -13 -7 -30 -17 -40 -10 -9 -18 -24
-18 -33 0 -10 -8 -28 -19 -41 -10 -13 -26 -38 -34 -56 -9 -17 -26 -34 -37 -38
-11 -4 -17 -11 -14 -17 7 -11 -50 -68 -69 -68 -7 0 -6 -4 3 -11 12 -9 11 -10
-7 -6 -16 4 -20 1 -16 -11 4 -10 2 -13 -5 -8 -7 4 -12 3 -12 -3 0 -10 -34 -32
-82 -52 -16 -6 -28 -15 -28 -20 0 -4 -7 -5 -17 -2 -10 4 -14 2 -10 -5 5 -6
-14 -17 -50 -27 -32 -9 -62 -20 -68 -25 -18 -13 -65 -18 -66 -6 0 7 -3 6 -6
-2 -2 -6 -8 -10 -13 -7 -4 3 -30 1 -56 -4 -27 -5 -65 -6 -84 -1 -19 4 -29 8
-21 9 8 1 12 3 10 6 -3 2 -20 0 -38 -5 -24 -7 -47 -4 -92 10 -33 11 -63 19
-67 18 -16 -3 -72 29 -65 37 5 4 0 5 -11 1 -14 -5 -17 -2 -12 9 3 8 1 15 -4
15 -6 0 -10 -6 -11 -12 0 -10 -2 -10 -6 0 -2 6 -10 9 -16 5 -6 -4 -8 0 -4 10
4 11 2 14 -8 11 -8 -3 -25 5 -39 19 -14 14 -27 22 -30 19 -3 -3 -6 0 -6 6 0 7
-6 12 -12 12 -15 0 -78 63 -78 77 0 6 -7 14 -15 17 -9 3 -22 21 -30 40 -8 19
-23 39 -32 45 -10 5 -15 13 -11 16 4 4 0 14 -8 22 -8 9 -13 22 -9 30 4 11 1
13 -10 9 -9 -3 -13 -2 -10 4 3 6 3 16 -2 23 -4 6 -8 17 -9 22 -1 6 -9 31 -18
57 -9 26 -18 68 -19 93 -1 25 -4 45 -7 45 -5 0 -6 150 0 160 1 3 3 19 5 37 1
18 10 44 20 60 12 18 14 28 7 31 -8 2 -8 9 1 23 10 17 9 22 -7 34 -19 14 -14
35 8 35 7 0 21 9 31 20 10 11 22 17 27 14 4 -3 7 -1 6 4 -4 14 64 102 79 102
7 0 10 6 7 15 -4 8 -1 15 6 15 6 0 8 5 5 10 -3 6 1 10 9 10 9 0 16 3 16 8 0 4
12 16 27 26 14 11 23 13 18 6 -5 -9 -4 -11 3 -6 7 4 12 13 12 21 0 7 9 17 20
20 11 4 18 10 16 14 -3 4 4 8 15 8 11 1 30 12 43 24 13 13 35 24 49 26 22 3
27 -2 36 -33 6 -21 8 -41 6 -45 -3 -4 0 -9 6 -11 7 -2 -5 -21 -26 -41 -21 -21
-44 -36 -50 -33 -6 2 -21 -5 -34 -15 -13 -11 -20 -19 -16 -19 4 0 -15 -21 -42
-47 -26 -26 -55 -46 -63 -45 -11 2 -12 1 -3 -6 10 -6 7 -16 -10 -40 -13 -17
-30 -50 -37 -74 -8 -24 -21 -50 -30 -58 -8 -8 -16 -26 -18 -40 -1 -14 -6 -26
-10 -28 -9 -3 -7 -159 2 -192 6 -19 5 -21 -3 -10 -7 9 -11 10 -11 3 0 -6 5
-15 11 -19 6 -3 9 -15 6 -25 -3 -11 -1 -19 5 -19 5 0 6 -5 3 -10 -4 -6 8 -36
25 -66 17 -31 26 -53 19 -49 -7 5 -10 3 -7 -6 3 -8 11 -13 17 -12 6 2 11 -6
11 -18 0 -11 8 -28 18 -37 10 -10 12 -13 5 -8 -8 5 -13 4 -13 -2 0 -6 8 -13
19 -17 24 -7 140 -122 132 -131 -3 -4 1 -5 9 -2 8 2 24 -4 35 -15 11 -10 29
-23 40 -28 11 -5 31 -16 45 -25 24 -16 24 -16 5 1 -18 16 -18 17 -2 11 10 -3
23 -6 28 -6 6 0 7 -4 4 -10 -3 -5 0 -10 7 -11 7 0 22 -2 33 -5 11 -2 32 -5 48
-6 15 0 27 -5 27 -9 0 -21 210 5 262 32 24 13 41 11 32 -3 -4 -7 -3 -8 5 -4 6
4 9 12 6 17 -4 5 3 9 14 9 12 0 21 5 21 11 0 5 5 7 10 4 6 -3 10 -1 10 5 0 6
5 8 10 5 6 -3 10 -1 10 5 0 6 5 8 10 5 6 -3 10 -1 10 4 0 6 6 11 13 11 6 0 41
32 76 70 35 38 68 67 74 63 6 -4 7 -1 2 7 -4 7 -3 15 3 19 5 3 18 24 29 46 11
22 25 39 31 38 7 -2 12 2 12 7 0 6 -5 10 -11 10 -8 0 -7 5 2 16 7 9 14 26 16
37 2 12 8 35 15 50 6 16 10 69 9 120 -3 144 -5 161 -19 176 -8 8 -11 23 -8 33
2 11 2 17 -2 14 -6 -7 -50 80 -51 102 -1 7 -6 10 -13 6 -8 -5 -9 -2 -5 9 4 11
1 17 -9 17 -8 0 -13 3 -11 8 3 4 -13 27 -35 52 -22 25 -37 39 -34 33 4 -7 2
-13 -3 -13 -6 0 -11 6 -11 13 0 15 -60 63 -73 59 -5 -1 -6 2 -2 8 3 5 0 10 -8
10 -8 0 -26 9 -39 20 -14 10 -28 16 -32 13 -3 -3 -6 -2 -6 4 0 6 -7 14 -16 17
-9 4 -13 2 -8 -5 4 -6 -3 -6 -17 2 -13 7 -32 12 -41 10 -10 -1 -18 2 -18 8 0
5 -11 8 -25 5 -14 -2 -25 -1 -25 4 0 12 -100 14 -140 2 -19 -5 -38 -6 -42 -2
-4 4 -8 33 -9 64 -1 35 -6 55 -12 51 -6 -3 -7 -1 -3 5 4 6 22 10 41 8 19 -1
35 1 35 5 0 4 22 6 49 6 28 0 48 -4 45 -8z m-926 -665 c33 -3 34 -4 21 -21
-10 -11 -10 -14 -1 -9 17 10 15 -6 -3 -30 -12 -16 -16 -17 -24 -5 -5 8 -16 11
-24 8 -10 -4 -15 2 -15 21 0 29 18 58 27 45 3 -4 12 -8 19 -9z m-56 -41 c-6
-2 -10 -8 -7 -13 3 -4 -2 -11 -10 -14 -13 -4 -14 -2 -5 14 6 11 16 20 23 19 9
0 9 -2 -1 -6z m1293 -493 c-3 -5 -12 -10 -18 -10 -7 0 -6 4 3 10 19 12 23 12
15 0z"/>
<path d="M3860 2146 c7 -7 13 -7 20 0 6 6 3 10 -10 10 -13 0 -16 -4 -10 -10z"/>
<path d="M5210 2076 c0 -2 8 -10 18 -17 15 -13 16 -12 3 4 -13 16 -21 21 -21
13z"/>
<path d="M4595 1920 c-3 -5 -12 -7 -20 -3 -8 3 -15 0 -15 -7 0 -6 -4 -9 -9 -5
-5 3 -12 1 -16 -5 -3 -5 -1 -10 4 -10 6 0 11 -10 11 -22 0 -48 23 -150 38
-164 13 -14 13 -17 1 -26 -11 -7 -11 -11 -1 -15 6 -2 12 -11 12 -19 0 -8 5
-14 10 -14 6 0 10 -7 10 -16 0 -9 9 -29 20 -44 14 -20 17 -31 9 -36 -7 -4 3
-19 27 -42 23 -20 34 -36 27 -39 -29 -10 19 -69 53 -65 12 2 25 -2 29 -8 10
-16 25 7 25 37 0 12 5 23 11 25 6 2 5 14 -5 33 -9 17 -16 26 -17 20 0 -5 -4 1
-10 13 -5 13 -15 22 -21 19 -14 -4 -55 76 -83 160 -9 29 -21 55 -26 59 -5 3
-7 9 -4 14 3 4 -2 21 -10 36 -8 16 -15 39 -15 50 0 60 -19 100 -35 74z m3 -65
c1 -8 2 -26 3 -40 1 -13 6 -22 11 -19 5 3 7 -6 4 -20 -3 -14 0 -26 5 -26 5 0
9 -7 9 -15 0 -8 5 -15 11 -15 6 0 9 -7 5 -15 -3 -8 2 -21 10 -30 9 -8 14 -21
12 -27 -3 -7 1 -19 9 -26 15 -16 18 -46 3 -37 -5 3 -10 14 -11 23 0 14 -2 13
-9 -3 -8 -19 -9 -19 -9 2 -1 12 -7 23 -13 26 -7 2 -14 18 -14 35 -3 59 -4 63
-16 56 -7 -4 -8 -3 -4 4 4 6 0 24 -8 40 -11 22 -12 32 -3 41 8 8 8 11 -1 11
-7 0 -12 11 -12 25 0 27 16 35 18 10z m106 -288 c3 3 6 -1 6 -9 0 -9 7 -21 15
-28 8 -7 12 -16 9 -21 -3 -5 3 -9 13 -9 15 0 16 -2 3 -10 -12 -8 -10 -10 8
-10 13 0 21 -4 18 -9 -4 -5 -1 -11 5 -13 9 -3 9 -10 0 -27 -7 -12 -15 -20 -18
-17 -3 3 0 14 8 23 11 15 11 16 -1 6 -21 -19 -39 -16 -35 7 2 11 -1 20 -6 20
-6 0 -8 3 -5 8 2 4 -2 18 -10 32 -7 14 -13 19 -14 12 0 -7 -5 -10 -10 -7 -6 4
-8 11 -4 16 3 6 -2 20 -13 31 -18 21 -18 21 3 10 12 -6 24 -8 28 -5z"/>
<path d="M3936 1893 c-6 -14 -5 -15 5 -6 7 7 10 15 7 18 -3 3 -9 -2 -12 -12z"/>
<path d="M1900 1881 c0 -6 4 -13 10 -16 6 -3 7 1 4 9 -7 18 -14 21 -14 7z"/>
<path d="M3792 1758 c-21 -21 -14 -26 30 -25 41 2 69 27 30 27 -11 0 -26 2
-34 5 -7 3 -19 0 -26 -7z"/>
<path d="M4406 1665 c-10 -8 -45 -17 -77 -21 -33 -4 -59 -11 -59 -17 0 -9 11
-9 130 9 l45 6 -30 -26 c-21 -17 -47 -27 -87 -32 -41 -5 -58 -11 -58 -21 0
-18 65 -15 97 5 15 9 36 11 67 7 31 -5 46 -4 46 4 0 6 7 11 15 11 8 0 15 -8
15 -18 0 -23 -70 -48 -157 -57 -47 -5 -63 -11 -63 -22 0 -12 7 -14 33 -9 17 4
41 8 52 10 11 1 28 6 38 9 38 15 49 16 93 10 64 -8 56 -33 -16 -50 -52 -13
-108 -12 -232 3 -29 4 -48 2 -48 -4 0 -14 48 -25 101 -23 26 1 50 -2 54 -8 8
-14 92 -14 101 0 3 6 17 9 30 6 17 -3 36 4 58 22 31 25 32 28 18 49 -8 12 -23
22 -33 22 -17 0 -18 3 -7 21 10 17 10 23 1 26 -7 2 -9 11 -6 19 8 22 -23 27
-51 9 -14 -9 -33 -15 -43 -12 -13 3 -8 8 20 21 43 19 50 54 9 48 -12 -2 -22 2
-22 7 0 15 -11 13 -34 -4z"/>
<path d="M3676 1615 c45 -40 54 -42 54 -15 0 11 -6 20 -14 20 -7 0 -19 7 -26
15 -7 8 -22 15 -33 15 -17 0 -14 -6 19 -35z"/>
<path d="M1043 1623 c-13 -2 -23 -8 -23 -12 0 -4 -24 -13 -52 -20 -29 -6 -73
-25 -97 -41 -24 -17 -49 -30 -55 -30 -7 0 -18 -9 -26 -20 -8 -11 -18 -20 -23
-20 -14 0 -127 -113 -127 -127 0 -8 -7 -16 -15 -19 -8 -4 -15 -11 -15 -16 0
-5 -16 -33 -35 -62 -19 -29 -35 -58 -35 -64 0 -6 -5 -23 -12 -39 -6 -15 -12
-32 -13 -38 -1 -5 -3 -13 -5 -17 -1 -5 -3 -11 -5 -15 -1 -5 -5 -16 -9 -25 -5
-10 -6 -36 -4 -58 2 -22 -1 -40 -5 -40 -13 0 3 -213 16 -222 6 -4 8 -10 4 -14
-4 -4 -3 -12 2 -18 5 -6 17 -39 26 -73 10 -35 22 -63 27 -63 5 0 18 -21 28
-46 29 -66 188 -222 265 -261 33 -16 69 -34 80 -40 36 -20 131 -43 173 -43 22
0 44 -5 47 -10 8 -13 115 -13 115 0 0 6 18 10 40 10 84 0 253 65 316 121 11
11 24 19 28 19 9 0 136 123 136 132 0 3 20 36 45 74 25 37 45 75 45 84 0 9 3
20 7 24 5 4 8 11 9 14 0 4 3 14 6 22 20 51 28 89 28 131 0 27 3 49 8 49 11 0
9 73 -3 86 -7 8 -18 9 -33 3 -13 -5 -40 -9 -61 -9 -46 0 -61 -14 -61 -56 0
-18 -5 -36 -10 -39 -6 -4 -10 -18 -9 -33 2 -44 -71 -219 -85 -205 -3 4 -6 -2
-6 -13 0 -18 -23 -45 -107 -126 -15 -16 -33 -28 -38 -28 -6 0 -28 -12 -49 -26
-31 -21 -40 -24 -47 -13 -8 13 -13 6 -10 -13 0 -5 -7 -8 -17 -8 -10 0 -22 -3
-26 -7 -9 -10 -36 -15 -68 -14 -15 0 -30 -4 -33 -9 -8 -13 -125 -13 -125 0 0
5 -15 10 -32 9 -40 0 -64 4 -101 20 -16 6 -33 11 -38 11 -5 0 -12 7 -15 15 -4
8 -9 13 -13 11 -4 -3 -29 13 -57 34 -27 22 -59 44 -71 50 -13 5 -23 16 -23 23
0 8 -15 31 -34 51 -19 20 -40 52 -47 71 -7 19 -16 35 -20 35 -4 0 -15 26 -25
58 -32 103 -19 372 18 372 5 0 8 6 7 13 -3 22 34 97 48 97 7 0 13 9 13 19 0
21 126 151 145 151 7 0 29 11 49 25 20 13 36 22 36 18 0 -3 7 0 15 7 8 6 18 9
24 6 5 -3 11 -2 13 3 5 16 97 26 211 24 81 -2 107 0 106 10 -1 6 3 25 9 40 7
16 15 45 18 66 5 34 4 39 -17 44 -26 7 -290 7 -326 0z m316 -39 c2 -2 -1 -9
-6 -16 -6 -7 -14 -28 -18 -46 -3 -18 -10 -30 -15 -27 -5 3 -12 0 -16 -6 -5 -8
-9 -7 -14 2 -10 15 -168 18 -178 3 -4 -5 -18 -9 -32 -10 -28 -1 -70 -16 -113
-39 -16 -8 -34 -12 -39 -8 -6 3 -8 1 -5 -4 4 -6 -9 -18 -28 -27 -19 -9 -40
-26 -46 -37 -6 -12 -13 -18 -16 -15 -4 3 -13 -4 -21 -15 -12 -17 -16 -18 -24
-8 -7 11 -8 11 -6 -1 1 -8 -10 -33 -25 -55 -16 -23 -27 -33 -27 -23 0 9 5 19
10 21 6 3 5 4 -2 3 -7 -1 -14 -15 -16 -30 -2 -15 -10 -30 -18 -33 -7 -3 -12
-9 -9 -13 3 -5 -1 -15 -9 -23 -8 -8 -12 -17 -9 -21 3 -3 0 -12 -7 -21 -7 -8
-10 -15 -6 -15 4 0 0 -10 -9 -23 -8 -13 -12 -27 -9 -30 4 -4 2 -13 -4 -20 -17
-20 -25 -173 -14 -237 6 -30 12 -64 14 -75 2 -11 9 -26 15 -33 7 -7 18 -31 24
-52 7 -22 21 -49 31 -60 11 -12 17 -27 14 -35 -3 -8 0 -12 8 -9 7 3 19 -8 27
-23 15 -29 49 -68 49 -56 0 4 13 -6 30 -22 16 -15 26 -33 23 -39 -4 -6 2 -4
12 4 11 9 16 10 11 2 -6 -11 4 -17 26 -13 4 0 5 -6 2 -13 -4 -11 0 -13 15 -9
12 3 21 1 21 -6 0 -13 41 -32 80 -38 14 -2 37 -8 52 -14 30 -12 208 -18 208
-7 0 3 15 6 33 7 49 0 78 9 100 28 11 10 17 12 13 5 -11 -19 11 -14 31 6 10
11 33 25 51 33 17 8 32 18 32 22 0 5 5 5 10 2 6 -3 10 1 10 10 0 9 5 13 10 10
6 -3 10 0 10 8 0 13 43 41 67 42 6 0 15 4 20 9 5 5 2 6 -6 1 -26 -15 7 57 40
85 8 7 22 44 21 53 -1 4 2 7 6 7 12 0 32 46 32 71 0 11 4 18 8 15 5 -3 8 3 8
12 0 56 6 82 21 97 12 12 13 19 4 24 -8 5 -6 13 9 26 23 21 58 27 67 12 3 -5
9 -3 14 4 5 8 7 -16 4 -56 -5 -93 -15 -136 -29 -128 -6 4 -5 -1 3 -10 11 -14
11 -17 -1 -17 -10 0 -14 -13 -15 -41 -1 -26 -8 -48 -22 -63 -12 -12 -21 -28
-21 -35 0 -7 -5 -9 -12 -5 -7 4 -8 3 -4 -5 5 -7 -1 -20 -13 -30 -12 -10 -21
-21 -21 -25 0 -15 -115 -136 -130 -136 -5 0 -10 -4 -10 -10 0 -5 -7 -10 -15
-10 -8 0 -15 -4 -15 -10 0 -5 -7 -10 -15 -10 -7 0 -19 -8 -24 -17 -8 -14 -11
-15 -11 -3 -1 13 -2 13 -13 0 -20 -25 -67 -52 -95 -54 -15 -1 -33 -5 -39 -9
-17 -11 -44 -15 -103 -19 -26 -2 -46 -6 -44 -9 5 -9 -48 -5 -63 4 -7 4 -33 6
-59 3 -34 -3 -43 -1 -33 6 11 7 8 8 -9 5 -13 -3 -47 2 -75 11 -29 8 -55 15
-59 14 -5 -1 -8 3 -8 9 0 5 -4 8 -9 4 -5 -3 -12 -1 -16 5 -4 6 -10 8 -15 5 -5
-3 -15 3 -22 13 -11 16 -47 35 -70 37 -4 0 -13 6 -20 13 -11 11 -9 12 7 7 19
-6 19 -6 2 5 -10 7 -21 9 -24 6 -10 -10 -32 14 -27 28 3 8 -2 16 -11 20 -11 4
-14 2 -9 -7 4 -6 -4 0 -18 14 -14 15 -28 34 -31 44 -4 9 -12 13 -18 9 -8 -4
-9 -3 -5 4 4 7 3 12 -1 12 -12 0 -43 54 -43 75 0 10 5 14 13 9 6 -4 9 -4 5 0
-3 4 -8 7 -10 5 -8 -6 -48 23 -43 32 4 5 1 9 -6 9 -6 0 -9 8 -6 20 3 11 0 23
-5 27 -7 4 -8 1 -3 -7 5 -9 4 -11 -3 -6 -7 4 -12 16 -12 27 0 11 -5 29 -11 41
-11 20 -20 108 -22 203 -2 71 9 153 27 202 8 22 12 44 9 47 -3 3 2 8 11 12 9
3 14 9 11 13 -2 4 7 29 20 56 14 27 25 44 25 39 0 -5 7 5 16 22 20 41 53 76
64 69 5 -3 12 0 16 6 5 8 3 9 -7 4 -8 -4 -5 1 6 12 11 11 30 32 43 47 12 15
27 24 32 21 5 -3 11 4 15 15 3 11 11 20 16 20 6 0 7 -6 4 -12 -4 -7 0 -5 8 5
8 9 20 17 26 17 7 0 9 5 6 10 -6 9 -2 12 28 14 12 1 24 9 50 32 7 6 18 9 25 6
7 -2 23 4 34 14 12 11 18 13 14 7 -4 -7 -5 -13 -3 -13 3 0 16 6 29 13 17 8 66
11 168 9 80 -2 147 -5 149 -8z m-172 -1390 c-3 -3 -12 -4 -19 -1 -8 3 -5 6 6
6 11 1 17 -2 13 -5z"/>
<path d="M3470 1589 c0 -5 5 -7 10 -4 6 3 10 8 10 11 0 2 -4 4 -10 4 -5 0 -10
-5 -10 -11z"/>
<path d="M1456 1578 c-3 -7 -9 -35 -16 -63 -6 -27 -16 -53 -23 -57 -17 -10 7
-33 66 -61 55 -26 151 -115 198 -184 16 -23 39 -67 51 -98 18 -48 19 -58 7
-66 -10 -6 -11 -9 -1 -9 7 0 23 -12 36 -26 21 -25 25 -26 84 -19 47 5 63 11
67 25 7 21 -11 98 -27 117 -5 7 -7 17 -3 23 3 5 1 10 -4 10 -6 0 -11 7 -11 15
0 8 -15 43 -32 77 -38 74 -198 241 -252 263 -19 8 -51 26 -72 40 -41 28 -63
32 -68 13z m39 -28 c-3 -5 3 -10 15 -10 12 0 18 -4 15 -10 -3 -5 3 -10 14 -10
12 0 21 -4 21 -9 0 -5 10 -13 23 -17 12 -4 30 -16 40 -27 9 -11 20 -17 24 -14
3 4 16 -7 28 -23 12 -16 25 -27 28 -23 4 3 7 1 7 -6 0 -7 12 -25 28 -41 33
-34 52 -57 52 -65 0 -4 7 -13 15 -22 9 -8 14 -20 12 -26 -2 -7 5 -19 16 -28
11 -9 26 -34 32 -57 11 -35 10 -40 -3 -34 -10 3 -13 1 -8 -6 4 -7 14 -12 23
-12 10 0 14 -6 10 -20 -3 -11 -1 -23 4 -26 17 -10 9 -22 -22 -33 -44 -15 -73
-5 -87 31 -6 17 -9 35 -6 39 3 5 0 9 -6 9 -6 0 -9 4 -5 9 3 5 0 13 -6 16 -5 4
-8 13 -5 21 3 8 -1 14 -11 14 -9 0 -13 3 -10 6 3 4 -2 18 -13 32 -11 13 -17
29 -13 36 3 6 3 8 -1 4 -12 -10 -34 15 -28 31 3 8 1 12 -5 8 -5 -3 -16 5 -23
18 -7 13 -17 22 -22 19 -4 -3 -8 1 -8 9 0 8 -8 21 -17 28 -17 13 -17 13 -3 -6
14 -19 14 -19 -2 -6 -10 7 -18 20 -18 27 0 8 -6 11 -17 7 -12 -5 -15 -2 -10
10 5 12 -1 19 -18 23 -14 3 -25 10 -25 15 0 5 -7 6 -15 3 -9 -4 -18 1 -21 11
-6 13 -9 14 -16 3 -6 -9 -7 -3 -3 16 8 39 32 96 40 96 3 0 3 -4 0 -10z"/>
<path d="M3900 1575 c-7 -9 -11 -17 -9 -20 3 -2 10 5 17 15 14 24 10 26 -8 5z"/>
<path d="M2973 1515 c-7 -8 -9 -16 -4 -19 5 -3 12 1 15 10 8 22 4 25 -11 9z"/>
<path d="M1344 1442 c-6 -4 -15 -23 -19 -42 -4 -19 -14 -51 -23 -70 -8 -19
-16 -37 -17 -40 -9 -36 -49 -147 -55 -154 -5 -5 -6 -15 -3 -22 3 -8 -1 -14
-10 -14 -8 0 -17 -13 -20 -30 -4 -18 -13 -30 -22 -30 -11 0 -14 -8 -10 -35 3
-28 0 -37 -17 -46 -16 -9 -19 -17 -15 -45 6 -38 40 -80 56 -69 6 3 11 -1 11
-9 0 -9 5 -16 10 -16 6 0 10 7 10 16 0 14 3 14 15 4 12 -10 15 -9 15 8 0 29
22 34 149 32 68 -1 117 3 120 9 4 6 56 13 116 17 76 5 115 11 128 22 21 18 21
29 3 47 -11 11 -26 12 -75 4 -34 -5 -98 -9 -144 -8 -45 0 -105 -3 -134 -8 -34
-7 -56 -6 -62 0 -7 7 -15 6 -24 -1 -8 -7 -17 -9 -20 -5 -4 3 -14 0 -22 -7 -14
-12 -16 -8 -10 35 3 27 10 52 16 56 5 3 9 10 8 15 -1 5 4 23 11 39 8 17 15 46
15 65 1 19 7 36 13 38 6 2 8 10 5 18 -3 8 0 14 7 14 7 0 10 6 7 13 -3 7 1 21
9 32 8 10 14 24 14 31 0 7 5 25 12 41 19 47 19 65 2 85 -18 19 -32 22 -50 10z
m23 -37 c-4 -8 -2 -17 4 -20 5 -4 7 -11 4 -16 -11 -17 -22 -9 -20 14 4 34 5
37 11 37 3 0 4 -7 1 -15z m-7 -65 c0 -5 -4 -10 -10 -10 -5 0 -10 5 -10 10 0 6
5 10 10 10 6 0 10 -4 10 -10z m-10 -30 c0 -5 -5 -10 -11 -10 -5 0 -8 -4 -4 -9
3 -5 1 -12 -5 -16 -5 -3 -10 -17 -10 -31 0 -15 -6 -24 -15 -24 -19 0 -19 5 -1
38 8 15 17 35 20 45 6 18 26 24 26 7z m-50 -134 c0 -8 -4 -18 -10 -21 -15 -9
-12 -27 3 -19 6 4 4 -2 -6 -13 -9 -11 -14 -23 -10 -26 3 -4 -2 -14 -13 -22
-10 -8 -15 -15 -11 -15 4 0 3 -9 -3 -19 -7 -14 -6 -21 3 -24 7 -3 5 -6 -5 -6
-11 -1 -15 -6 -12 -16 4 -9 0 -15 -7 -15 -9 -1 -8 -4 4 -11 9 -5 17 -16 17
-23 0 -19 15 -23 87 -21 34 0 59 -3 56 -8 -3 -5 -24 -7 -47 -5 -42 5 -90 -6
-114 -25 -23 -18 -50 -18 -58 1 -14 32 -13 47 2 59 9 6 17 27 18 46 2 19 13
45 25 58 11 12 21 26 21 31 0 4 8 8 18 8 13 0 14 2 4 9 -11 6 -10 10 4 15 14
5 15 9 5 15 -10 6 -9 11 3 24 19 18 21 31 4 21 -7 -4 -8 -3 -4 4 10 17 26 15
26 -2z m241 -236 c10 0 19 -4 19 -9 0 -5 -11 -8 -25 -6 -14 1 -25 -1 -25 -4 0
-4 -23 -7 -51 -8 -27 0 -48 1 -45 4 2 3 7 4 10 4 3 0 20 6 38 14 18 8 39 12
46 10 8 -3 22 -5 33 -5z m139 6 c0 -3 -4 -8 -10 -11 -5 -3 -10 -1 -10 4 0 6 5
11 10 11 6 0 10 -2 10 -4z m50 -6 c0 -5 -2 -10 -4 -10 -3 0 -8 5 -11 10 -3 6
-1 10 4 10 6 0 11 -4 11 -10z m-125 -10 c-3 -5 -12 -10 -18 -10 -7 0 -6 4 3
10 19 12 23 12 15 0z"/>
<path d="M3085 1421 c-3 -5 -2 -12 3 -15 5 -3 9 1 9 9 0 17 -3 19 -12 6z"/>
<path d="M2975 1203 c-22 -2 -47 -7 -55 -10 -8 -3 -21 -5 -29 -4 -7 1 -11 -4
-9 -11 4 -9 22 -12 69 -9 35 2 68 6 74 9 5 4 22 5 36 4 14 -2 31 4 39 12 11
14 7 16 -36 14 -27 -1 -67 -3 -89 -5z"/>
<path d="M2090 1103 c-40 -16 -92 -56 -100 -79 -6 -16 -16 -24 -27 -22 -21 4
-29 -27 -12 -48 7 -9 20 -12 33 -8 28 9 33 14 18 22 -8 6 -6 16 10 37 26 38
86 77 101 68 6 -4 25 -6 41 -5 17 2 27 0 23 -4 -4 -4 6 -18 21 -32 15 -13 21
-21 15 -18 -14 8 -18 -10 -4 -18 15 -10 21 -48 7 -43 -9 4 -12 -2 -9 -16 5
-33 -9 -46 -53 -53 -48 -6 -110 17 -119 46 -7 23 -18 25 -34 7 -14 -18 29 -58
81 -76 40 -13 128 -6 128 10 0 5 7 9 15 9 10 0 15 10 15 28 0 15 5 33 12 40 8
8 9 18 1 34 -6 13 -19 42 -29 65 -15 32 -27 44 -55 52 -39 12 -56 13 -79 4z"/>
<path d="M1568 193 c7 -3 16 -2 19 1 4 3 -2 6 -13 5 -11 0 -14 -3 -6 -6z"/>
</g>
</svg>
